<svg xmlns="http://www.w3.org/2000/svg" width="369" height="369" fill="none"><g fill="#8E8ADD" clip-path="url(#a)"><path d="M162.778 87.64a.843.843 0 1 0 0-1.686.843.843 0 0 0 0 1.685Zm146.528 109.042a1.233 1.233 0 1 0 .001-2.467 1.233 1.233 0 0 0-.001 2.467Zm-18.017 64.582a1.2 1.2 0 1 0 0-2.398 1.2 1.2 0 0 0 0 2.398ZM49.644 195.357a1.198 1.198 0 1 0 .001-2.396 1.198 1.198 0 0 0 0 2.396Zm194.979 84.207a1.474 1.474 0 1 0-.002-2.948 1.474 1.474 0 0 0 .002 2.948ZM89.634 292.835a.746.746 0 1 0 0-1.492.746.746 0 0 0 0 1.492Zm44.287-177.887a1.153 1.153 0 1 0 .002-2.306 1.153 1.153 0 0 0-.002 2.306ZM69.127 232.961a.719.719 0 1 0 0-1.438.719.719 0 0 0 0 1.438Zm69.022-149.237a1.18 1.18 0 1 0 0-2.362 1.18 1.18 0 0 0 0 2.362Zm51.235 197.537a1.953 1.953 0 1 0-.002-3.906 1.953 1.953 0 0 0 .002 3.906Zm37.34 59.187a1.02 1.02 0 1 0 0-2.042 1.02 1.02 0 0 0 0 2.042Zm-9.584-10.577a1.127 1.127 0 1 0 0-2.254 1.127 1.127 0 0 0 0 2.254Zm.547-23.999a.736.736 0 1 0 0-1.472.736.736 0 0 0 0 1.472Zm113.108-140.237a1.003 1.003 0 1 0 0-2.006 1.003 1.003 0 0 0 0 2.006Zm-33.418 31.455a1.695 1.695 0 1 0 0-3.39 1.695 1.695 0 0 0 0 3.39Zm-24.475-98.028a.781.781 0 1 0 0-1.562.781.781 0 0 0 0 1.562Zm20.892 62.082a1.091 1.091 0 1 0 0-2.182 1.091 1.091 0 0 0 0 2.182ZM108.542 288.298a1.243 1.243 0 1 0-.002-2.486 1.243 1.243 0 0 0 .002 2.486Zm116.46 18.053a1.057 1.057 0 1 0 0-2.113 1.057 1.057 0 0 0 0 2.113Zm78.489-111.509a1.199 1.199 0 1 0-.002-2.398 1.199 1.199 0 0 0 .002 2.398Zm6.6 26.698a.852.852 0 1 0 0-1.704.852.852 0 0 0 0 1.704Zm-43.334 27.692a.79.79 0 1 0 0-1.58.79.79 0 0 0 0 1.58ZM134.27 59.666a1.491 1.491 0 1 0 0-2.983 1.491 1.491 0 0 0 0 2.983Zm123.047 49.391a.728.728 0 1 0 0-1.456.728.728 0 0 0 0 1.456ZM241.439 289.86a.834.834 0 1 0 0-1.668.834.834 0 0 0 0 1.668Zm57.672-129.019a.853.853 0 1 0-.001-1.705.853.853 0 0 0 .001 1.705ZM200.703 330.65a1.004 1.004 0 1 0-.001-2.007 1.004 1.004 0 0 0 .001 2.007ZM130.142 79.378a1.056 1.056 0 1 0 0-2.112 1.056 1.056 0 0 0 0 2.112Zm64.798-31.482a.87.87 0 1 0 0-1.74.87.87 0 0 0 0 1.74Zm111.81 80.349a1.562 1.562 0 1 0 0-3.123 1.562 1.562 0 0 0 0 3.123Zm-9.078 41.553a1.065 1.065 0 1 0 0-2.13 1.065 1.065 0 0 0 0 2.13Zm29.89 67.176a.772.772 0 1 0 0-1.544.772.772 0 0 0 0 1.544Zm-26.581-92.205a.764.764 0 1 0-.001-1.527.764.764 0 0 0 .001 1.527Zm-24.627 107.683a1.153 1.153 0 1 0 .002-2.306 1.153 1.153 0 0 0-.002 2.306ZM191.037 48.509a1.144 1.144 0 1 0 0-2.29 1.144 1.144 0 0 0 0 2.29Zm145.233 66.433a1.536 1.536 0 1 0 0-3.072 1.536 1.536 0 0 0 0 3.072ZM121.401 238.757a.746.746 0 1 0 0-1.492.746.746 0 0 0 0 1.492Zm169.488.355a1.757 1.757 0 1 0 0-3.514 1.757 1.757 0 0 0 0 3.514Zm-91.53-193.816a1.172 1.172 0 1 0 0-2.344 1.172 1.172 0 0 0 0 2.344ZM38.551 230.626a1.162 1.162 0 1 0 0-2.325 1.162 1.162 0 0 0 0 2.325ZM244.689 69.562a.78.78 0 1 0 0-1.561.78.78 0 0 0 0 1.561ZM108.84 62.061a1.234 1.234 0 1 0 0-2.468 1.234 1.234 0 0 0 0 2.468Zm73.472-9.329a.772.772 0 1 0 0-1.544.772.772 0 0 0 0 1.544Zm114.499 96.439a1.074 1.074 0 1 0 0-2.148 1.074 1.074 0 0 0 0 2.148Zm-129.562 112.37a.79.79 0 1 0 0-1.58.79.79 0 0 0 0 1.58Zm-43.06 19.348a1.1 1.1 0 1 0 0-2.2 1.1 1.1 0 0 0 0 2.2Zm-7.5-59.26a.931.931 0 1 0 .001-1.863.931.931 0 0 0-.001 1.863Zm176.103 89.407a1.128 1.128 0 1 0-.002-2.256 1.128 1.128 0 0 0 .002 2.256Z"/><path d="M298.969 170.206a.86.86 0 1 0 .001-1.72.86.86 0 0 0-.001 1.72Zm-92.67 142.366a1.215 1.215 0 1 0 .002-2.43 1.215 1.215 0 0 0-.002 2.43Zm27.985-16.997a1.065 1.065 0 1 0 0-2.13 1.065 1.065 0 0 0 0 2.13Zm111.313-125.058a.87.87 0 1 0-.001-1.741.87.87 0 0 0 .001 1.741Zm-58.532-35.706a1.119 1.119 0 1 0-.002-2.238 1.119 1.119 0 0 0 .002 2.238ZM93.942 57.587a.87.87 0 1 0 0-1.74.87.87 0 0 0 0 1.74Zm10.479 120.8a1.128 1.128 0 1 0-.001-2.255 1.128 1.128 0 0 0 .001 2.255Zm17.734 102.378a.896.896 0 1 0 0-1.792.896.896 0 0 0 0 1.792Zm29.992-177.088a1.18 1.18 0 1 0 .001-2.36 1.18 1.18 0 0 0-.001 2.36Zm-69.024 25.757a1.225 1.225 0 1 0 0-2.45 1.225 1.225 0 0 0 0 2.45Zm5.824 143.316a1.224 1.224 0 1 0 .001-2.449 1.224 1.224 0 0 0 0 2.449Zm99.807-241.656a1.127 1.127 0 1 0 0-2.255 1.127 1.127 0 0 0 0 2.255Zm135.107 245.728a1.606 1.606 0 1 0 0-3.212 1.606 1.606 0 0 0 0 3.212ZM102.979 184.43a1.03 1.03 0 1 0 0-2.059 1.03 1.03 0 0 0 0 2.059Zm54.91-131.93a.896.896 0 1 0 0-1.792.896.896 0 0 0 0 1.792Zm165.485 128.17a1.003 1.003 0 1 0 0-2.006 1.003 1.003 0 0 0 0 2.006Zm-25.932 130.27a.94.94 0 1 0 0-1.881.94.94 0 0 0 0 1.881ZM100.33 76.787a1.98 1.98 0 1 0 0-3.959 1.98 1.98 0 0 0 0 3.959ZM78.908 143.2a.737.737 0 1 0 0-1.474.737.737 0 0 0 0 1.474Zm47.553 144.904a1.119 1.119 0 1 0-.002-2.238 1.119 1.119 0 0 0 .002 2.238Zm86.921-243.207a.923.923 0 1 0 0-1.846.923.923 0 0 0 0 1.846Zm94.76 154.417a1.163 1.163 0 1 0-.001-2.325 1.163 1.163 0 0 0 .001 2.325Zm-160.535 86.944a.72.72 0 1 0 0-1.438.72.72 0 0 0 0 1.438Zm-68.068-64.489a.994.994 0 1 0 0-1.988.994.994 0 0 0 0 1.988ZM296.82 303.19a.842.842 0 1 0 .001-1.685.842.842 0 0 0-.001 1.685Zm-4.367-47.294a.772.772 0 1 0 0-1.544.772.772 0 0 0 0 1.544Zm-88.495 21.416a.861.861 0 1 0 0-1.722.861.861 0 0 0 0 1.722Zm42.432 4.338a.87.87 0 1 0 0-1.74.87.87 0 0 0 0 1.74Zm-138.877 20.892a.86.86 0 1 0 .001-1.72.86.86 0 0 0-.001 1.72ZM294.867 70.308a.781.781 0 1 0 0-1.562.781.781 0 0 0 0 1.562Zm-8.182 178.602a.816.816 0 1 0 0-1.631.816.816 0 0 0 0 1.631ZM90.301 95.289a.799.799 0 1 0 0-1.598.799.799 0 0 0 0 1.598Zm193.923 21.752a.71.71 0 1 0 0-1.42.71.71 0 0 0 0 1.42Zm-26.083 2.236a1.189 1.189 0 1 0 0-2.377 1.189 1.189 0 0 0 0 2.377Zm34.623-45.137a1.039 1.039 0 1 0 0-2.078 1.039 1.039 0 0 0 0 2.077ZM91.145 127.16a1.074 1.074 0 1 0 0-2.148 1.074 1.074 0 0 0 0 2.148Zm-8.287 28.12a1.02 1.02 0 1 0 0-2.042 1.02 1.02 0 0 0 0 2.042Zm264.799 77.601a.888.888 0 1 0-.001-1.775.888.888 0 0 0 .001 1.775Zm-182.821 45.585a.87.87 0 1 0 0-1.738.87.87 0 0 0 0 1.738Zm117.977-172.278a.816.816 0 1 0 0-1.633.816.816 0 0 0 0 1.633Zm-69.786-32.277a.87.87 0 1 0 0-1.739.87.87 0 0 0 0 1.74ZM102.843 108.15a.906.906 0 1 0 0-1.811.906.906 0 0 0 0 1.811ZM78.632 266.233a.94.94 0 1 0 0-1.881.94.94 0 0 0 0 1.881Zm253.733-90.907a.905.905 0 1 0 0-1.81.905.905 0 0 0 0 1.81ZM151.419 299.979a1.233 1.233 0 1 0 .001-2.467 1.233 1.233 0 0 0-.001 2.467Zm99.888-35.926a.906.906 0 1 0-.001-1.811.906.906 0 0 0 .001 1.811ZM97.472 137.926a1.225 1.225 0 1 0 0-2.45 1.225 1.225 0 0 0 0 2.45Zm157.75-34.303a1.02 1.02 0 1 0 0-2.04 1.02 1.02 0 0 0 0 2.04ZM73.829 275.979a.745.745 0 1 0 0-1.49.745.745 0 0 0 0 1.49Z"/><path d="M89.195 95.767a1.065 1.065 0 1 0 0-2.13 1.065 1.065 0 0 0 0 2.13Zm240.87 117.795a.78.78 0 1 0 0-1.562.78.78 0 0 0 0 1.562Zm-70.434 81.047a.861.861 0 1 0 0-1.722.861.861 0 0 0 0 1.722Zm9.027-224.667a.754.754 0 1 0-.001-1.509.754.754 0 0 0 .001 1.51ZM127.437 289.08a.923.923 0 1 0 0-1.847.923.923 0 0 0 0 1.847ZM206.62 43.538a1.074 1.074 0 1 0 0-2.148 1.074 1.074 0 0 0 0 2.148ZM99.122 99.424a1.1 1.1 0 1 0 0-2.202 1.1 1.1 0 0 0 0 2.202Zm142.929-14.119a.8.8 0 1 0 0-1.599.8.8 0 0 0 0 1.599Zm-137.114 69.6a.94.94 0 1 0 0-1.881.94.94 0 0 0 0 1.881Zm-55.328 9.699a1.119 1.119 0 1 0 0-2.237 1.119 1.119 0 0 0 0 2.237Zm247.699 23.086a1.119 1.119 0 1 0-.002-2.238 1.119 1.119 0 0 0 .002 2.238Zm20.688 6.425a1.917 1.917 0 1 0 0-3.835 1.917 1.917 0 0 0 0 3.835ZM172.54 94.197a.87.87 0 1 0 0-1.74.87.87 0 0 0 0 1.74Zm-55.822 230.677a1.234 1.234 0 1 0-.002-2.468 1.234 1.234 0 0 0 .002 2.468Zm7.841-46.978a.985.985 0 1 0 0-1.97.985.985 0 0 0 0 1.97Zm25.643-233.24a.976.976 0 1 0 .001-1.953.976.976 0 0 0-.001 1.953Zm-14.158 58.445a.994.994 0 1 0 0-1.988.994.994 0 0 0 0 1.988Zm192.673 75.685a.967.967 0 1 0 .001-1.935.967.967 0 0 0-.001 1.935ZM217.118 33.387a.8.8 0 1 0 0-1.599.8.8 0 0 0 0 1.599Zm-31.329 9.601a.896.896 0 1 0 0-1.792.896.896 0 0 0 0 1.792Zm6.736 42.591a1.127 1.127 0 1 0 0-2.254 1.127 1.127 0 0 0 0 2.254ZM64.148 125.457a.816.816 0 1 0 0-1.632.816.816 0 0 0 0 1.632Zm57.716 150.471a1.917 1.917 0 1 0 0-3.833 1.917 1.917 0 0 0 0 3.833Zm200.321-57.452a1.465 1.465 0 1 0-.002-2.93 1.465 1.465 0 0 0 .002 2.93Zm-38.199-62.443a.807.807 0 1 0 .001-1.615.807.807 0 0 0-.001 1.615Zm-172.966 86.86a1.153 1.153 0 1 0 0-2.305 1.153 1.153 0 0 0 0 2.305Zm125.867 51.557a1.226 1.226 0 1 0-.001-2.451 1.226 1.226 0 0 0 .001 2.451ZM112.413 112.357a1.181 1.181 0 1 0 0-2.363 1.181 1.181 0 0 0 0 2.363Zm232.093 31.047a.968.968 0 1 0-.002-1.936.968.968 0 0 0 .002 1.936ZM162.655 99a.932.932 0 1 0 0-1.863.932.932 0 0 0 0 1.864Zm8.117-19.953a.932.932 0 1 0 0-1.863.932.932 0 0 0 0 1.863ZM99.886 236.048a.887.887 0 1 0 0-1.774.887.887 0 0 0 0 1.774ZM303.562 78.764a.746.746 0 1 0 0-1.491.746.746 0 0 0 0 1.492Zm-93.389 196.878a.968.968 0 1 0 .001-1.935.968.968 0 0 0-.001 1.935Zm58.272-226.751a.736.736 0 1 0 0-1.472.736.736 0 0 0 0 1.472ZM109.483 88.715a1.207 1.207 0 1 0 0-2.414 1.207 1.207 0 0 0 0 2.414Zm173.198 97.609a.896.896 0 1 0 0-1.792.896.896 0 0 0 0 1.792ZM63.533 141.847a1.189 1.189 0 1 0 0-2.378 1.189 1.189 0 0 0 0 2.378Zm225.696 81.012a1.011 1.011 0 1 0 0-2.023 1.011 1.011 0 0 0 0 2.023Zm-25.089 31.572a1.554 1.554 0 1 0-.002-3.108 1.554 1.554 0 0 0 .002 3.108Zm-96.23 14.829a1.216 1.216 0 1 0 0-2.432 1.216 1.216 0 0 0 0 2.432ZM46.76 117.577a.763.763 0 1 0 .001-1.525.763.763 0 0 0 0 1.525Zm285.657 13.336a1.073 1.073 0 1 0 .001-2.147 1.073 1.073 0 0 0-.001 2.147ZM110.644 258.502a.923.923 0 1 0 0-1.845.923.923 0 0 0 0 1.845Zm194.117 3.003a1.163 1.163 0 1 0-.001-2.325 1.163 1.163 0 0 0 .001 2.325ZM254.664 45.447a1.065 1.065 0 1 0 0-2.13 1.065 1.065 0 0 0 0 2.13Zm18.692 241.327a.817.817 0 1 0 0-1.635.817.817 0 0 0 0 1.635Zm7.09 1.527a.994.994 0 1 0 0-1.988.994.994 0 0 0 0 1.988Zm-169.58 33.769a1.206 1.206 0 1 0 .001-2.413 1.206 1.206 0 0 0-.001 2.413ZM292.23 96.798a.967.967 0 1 0 0-1.934.967.967 0 0 0 0 1.934Zm-57.998 212.668a1.244 1.244 0 1 0-.001-2.487 1.244 1.244 0 0 0 .001 2.487ZM145.363 75.035a.878.878 0 1 0 0-1.757.878.878 0 0 0 0 1.757Zm-38.631 59.306a1.163 1.163 0 1 0 0-2.326 1.163 1.163 0 0 0 0 2.326Zm-58.544 43.061a1.092 1.092 0 1 0 0-2.184 1.092 1.092 0 0 0 0 2.184Zm256.966-74.259a1.02 1.02 0 1 0 0-2.042 1.02 1.02 0 0 0 0 2.042ZM58.966 128.597a.896.896 0 1 0 0-1.792.896.896 0 0 0 0 1.792ZM222.81 296.41a1.206 1.206 0 1 0 .001-2.413 1.206 1.206 0 0 0-.001 2.413Zm64.603-219.573a1.065 1.065 0 1 0 0-2.13 1.065 1.065 0 0 0 0 2.13ZM102.782 286.558a1.19 1.19 0 1 0 0-2.378 1.19 1.19 0 0 0 0 2.378Zm154.524-177.351a.88.88 0 1 0-.001-1.76.88.88 0 0 0 .001 1.76ZM193.492 300.53a.923.923 0 1 0 0-1.847.923.923 0 0 0 0 1.847Zm-33.82-237.788a1.207 1.207 0 1 0 0-2.413 1.207 1.207 0 0 0 0 2.413ZM268.15 278.587a.95.95 0 1 0 0-1.9.95.95 0 0 0 0 1.9Zm-128.067 19.9a1.038 1.038 0 1 0 0-2.077 1.038 1.038 0 0 0 0 2.077Zm-32.092-14.761a.976.976 0 1 0 .001-1.953.976.976 0 0 0-.001 1.953ZM133.766 56.78a.826.826 0 1 0 0-1.652.826.826 0 0 0 0 1.652Zm41.126 14.449a.923.923 0 1 0 0-1.846.923.923 0 0 0 0 1.846Zm46.077 214.798a.879.879 0 1 0 0-1.758.879.879 0 0 0 0 1.758Zm67.022-141.034a1.029 1.029 0 1 0 0-2.058 1.029 1.029 0 0 0 0 2.058ZM76.176 96.647a1.447 1.447 0 1 0 0-2.893 1.447 1.447 0 0 0 0 2.893ZM305.107 75.71a.728.728 0 1 0 0-1.456.728.728 0 0 0 0 1.455ZM65.472 235.759a.852.852 0 1 0-.001-1.705.852.852 0 0 0 0 1.705Zm9.042 52.212a.923.923 0 1 0 0-1.846.923.923 0 0 0 0 1.846Zm245.662-17.708a1.18 1.18 0 1 0 .001-2.36 1.18 1.18 0 0 0-.001 2.36Zm-25.788-168.572a1.972 1.972 0 0 0 0-3.941 1.97 1.97 0 0 0 0 3.941ZM153.61 318.943a.807.807 0 1 0 .001-1.615.807.807 0 0 0-.001 1.615ZM96.509 151.657a.719.719 0 1 0 0-1.438.719.719 0 0 0 0 1.438Zm130.878-91.718a1.98 1.98 0 1 0 0-3.958 1.98 1.98 0 0 0 0 3.958Zm43.644 257.318a.878.878 0 1 0 0-1.756.878.878 0 0 0 0 1.756ZM206.943 32.08a1.881 1.881 0 1 0 0-3.763 1.881 1.881 0 0 0 0 3.763ZM73.554 168.198a.86.86 0 1 0 0-1.721.86.86 0 0 0 0 1.721Zm263.078 74.66a1.039 1.039 0 1 0 0-2.077 1.039 1.039 0 0 0 0 2.077Zm-64.053-103.495a.995.995 0 1 0 0-1.99.995.995 0 0 0 0 1.99Zm48.255 160.367a.86.86 0 1 0-.002-1.722.86.86 0 0 0 .002 1.722Zm-11.383-57.741a.737.737 0 1 0 0-1.474.737.737 0 0 0 0 1.474ZM259.692 55.156a.994.994 0 1 0 0-1.988.994.994 0 0 0 0 1.988ZM85.42 174.083a.967.967 0 1 0 0-1.934.967.967 0 0 0 0 1.934Zm205.269 7.862a1.19 1.19 0 1 0 .001-2.379 1.19 1.19 0 0 0-.001 2.379Zm-52.164 120.802a.95.95 0 1 0 0-1.9.95.95 0 0 0 0 1.9Zm-169.89-84.34a1.242 1.242 0 1 0 0-2.485 1.242 1.242 0 0 0 0 2.485Zm5.231-71.872a.816.816 0 1 0 .001-1.632.816.816 0 0 0 0 1.632Zm33.769 41.794a.755.755 0 1 0 0-1.51.755.755 0 0 0 0 1.51ZM217.14 334.654a.887.887 0 1 0 0-1.774.887.887 0 0 0 0 1.774Zm69.827-220.772a.976.976 0 1 0 0-1.952.976.976 0 0 0 0 1.952ZM125.899 284.953a.718.718 0 1 0 .001-1.437.718.718 0 0 0-.001 1.437Zm116.232-223.53a.967.967 0 1 0 0-1.934.967.967 0 0 0 0 1.934Zm-36.334 252.659a1.109 1.109 0 1 0 0-2.218 1.109 1.109 0 0 0 0 2.218ZM163.958 77.813a1.048 1.048 0 1 0 .001-2.095 1.048 1.048 0 0 0-.001 2.095Zm112.439 60.157a.772.772 0 1 0 0-1.544.772.772 0 0 0 0 1.544ZM220.492 67.6a.958.958 0 1 0 0-1.916.958.958 0 0 0 0 1.917Zm21.676-29.885a1.127 1.127 0 1 0 0-2.254 1.127 1.127 0 0 0 0 2.254Zm-95.687 28.519a.976.976 0 1 0 0-1.953.976.976 0 0 0 0 1.953Zm-60.733 6.664a.976.976 0 1 0 0-1.953.976.976 0 0 0 0 1.953Zm47.962 36.618a1.11 1.11 0 1 0 0-2.218 1.11 1.11 0 0 0 0 2.218Zm89.915 205.602a.772.772 0 1 0 0-1.544.772.772 0 0 0 0 1.544Z"/><path d="M133.375 58.226a.96.96 0 1 0 0-1.919.96.96 0 0 0 0 1.919Zm88.927-10.276a.817.817 0 1 0 0-1.634.817.817 0 0 0 0 1.633ZM95.238 291.067a.737.737 0 1 0 0-1.474.737.737 0 0 0 0 1.474ZM317.012 264.6a.71.71 0 1 0 0-1.42.71.71 0 0 0 0 1.42Zm-32.627-41.917a.994.994 0 1 0 0-1.988.994.994 0 0 0 0 1.988ZM193.645 77.85a1.003 1.003 0 1 0 0-2.006 1.003 1.003 0 0 0 0 2.006Zm-74.012 46.569a1.047 1.047 0 1 0 0-2.093 1.047 1.047 0 0 0 0 2.093Zm122.082-92.656a1.065 1.065 0 1 0 0-2.13 1.065 1.065 0 0 0 0 2.13Zm-79.45-.651a1.038 1.038 0 1 0 0-2.077 1.038 1.038 0 0 0 0 2.077Zm136.142 124.733a1.18 1.18 0 1 0 .001-2.36 1.18 1.18 0 0 0-.001 2.36Zm36.692 56.099a1.056 1.056 0 1 0 0-2.113 1.056 1.056 0 0 0 0 2.113Zm-198.857 51.717a.851.851 0 1 0 .001-1.703.851.851 0 0 0-.001 1.703Zm200.59-57.291a1.153 1.153 0 1 0 0-2.306 1.153 1.153 0 0 0 0 2.306Zm-56.9-71.151a.932.932 0 1 0 0-1.863.932.932 0 0 0 0 1.863ZM140.546 266.127a1.101 1.101 0 1 0 0-2.202 1.101 1.101 0 0 0 0 2.202Zm-79.621 2.709a1.092 1.092 0 1 0 0-2.184 1.092 1.092 0 0 0 0 2.184Zm9.161-108.768a.807.807 0 1 0 .001-1.614.807.807 0 0 0-.001 1.614Zm78.508 128.861a.764.764 0 1 0 0-1.527.764.764 0 0 0 0 1.527Zm117.509 25.463a.755.755 0 1 0-.002-1.51.755.755 0 0 0 .002 1.51ZM78.081 230.698a.958.958 0 1 0 0-1.917.958.958 0 0 0 0 1.917ZM177.37 61.474a.985.985 0 1 0 0-1.97.985.985 0 0 0 0 1.97Zm59.719 275.24a1.154 1.154 0 1 0 0-2.308 1.154 1.154 0 0 0 0 2.308ZM156.564 96.362a.861.861 0 1 0 0-1.722.861.861 0 0 0 0 1.722Zm-49.166 157.875a.745.745 0 1 0 0-1.49.745.745 0 0 0 0 1.49Zm-17.086-124.19a.8.8 0 1 0 0-1.598.8.8 0 0 0 0 1.598Zm11.739 7.993a.95.95 0 1 0 0-1.899.95.95 0 0 0 0 1.899Zm241.782 13.828a1.242 1.242 0 1 0 0-2.484 1.242 1.242 0 0 0 0 2.484ZM37.071 174.729a.843.843 0 1 0 0-1.686.843.843 0 0 0 0 1.686Zm91.907 90.362a1.048 1.048 0 1 0-.001-2.095 1.048 1.048 0 0 0 .001 2.095ZM97.5 153.857a1.18 1.18 0 1 0 0-2.362 1.18 1.18 0 0 0 0 2.362Zm75.112 148.109a.853.853 0 1 0-.001-1.705.853.853 0 0 0 .001 1.705ZM310.24 97.24a.923.923 0 1 0 0-1.845.923.923 0 0 0 0 1.846ZM153.317 296.782a.95.95 0 1 0 0-1.899.95.95 0 0 0 0 1.899Zm-48.067-58.016a1.047 1.047 0 1 0 .002-2.094 1.047 1.047 0 0 0-.002 2.094Zm18.397 44.153a.755.755 0 1 0 0-1.51.755.755 0 0 0 0 1.51Zm193.116-56.951a.746.746 0 1 0-.002-1.492.746.746 0 0 0 .002 1.492Zm-235.159 4.757a.906.906 0 1 0-.001-1.812.906.906 0 0 0 .001 1.812Zm27.585-108.011a.942.942 0 1 0-.002-1.884.942.942 0 0 0 .002 1.884Zm81.393-71.767a1.198 1.198 0 1 0 0-2.396 1.198 1.198 0 0 0 0 2.396Zm99.615 180.168a1.216 1.216 0 1 0 0-2.432 1.216 1.216 0 0 0 0 2.432ZM98.172 122.421a.976.976 0 1 0 0-1.952.976.976 0 0 0 0 1.952ZM87.71 208.99a1.18 1.18 0 1 0-.002-2.362 1.18 1.18 0 0 0 .001 2.362Zm-38.701-3.951a1.11 1.11 0 1 0 0-2.219 1.11 1.11 0 0 0 0 2.219Zm52.386 19.314a1.198 1.198 0 1 0 .001-2.397 1.198 1.198 0 0 0-.001 2.397Zm62.385 120.961a1.198 1.198 0 1 0 0-2.395 1.198 1.198 0 0 0 0 2.395Zm64.596-279.268a.781.781 0 1 0 0-1.562.781.781 0 0 0 0 1.562Zm97.649 174.178a1.065 1.065 0 1 0 0-2.13 1.065 1.065 0 0 0 0 2.13Zm-184.327 51.208a1.136 1.136 0 1 0 0-2.272 1.136 1.136 0 0 0 0 2.272Zm148.056-64.949a.727.727 0 1 0 0-1.454.727.727 0 0 0 0 1.454ZM92.549 201.332a.781.781 0 1 0 0-1.562.781.781 0 0 0 0 1.562Zm52.521 78.02a.931.931 0 1 0 0-1.863.931.931 0 0 0 0 1.863Zm-44.674-155.149a1.224 1.224 0 1 0 0-2.448 1.224 1.224 0 0 0 0 2.448Zm3.759 33.029a.967.967 0 1 0 0-1.935.967.967 0 0 0 0 1.935Zm10.813 107.512a.79.79 0 1 0 0-1.58.79.79 0 0 0 0 1.58ZM247.757 52.777a1.695 1.695 0 1 0 0-3.39 1.695 1.695 0 0 0 0 3.39Zm71.164 123.181a1.961 1.961 0 1 0 .001-3.923 1.961 1.961 0 0 0-.001 3.923Zm-65.8 116.743a1.1 1.1 0 1 0-.001-2.201 1.1 1.1 0 0 0 .001 2.201ZM218.789 61.377a.985.985 0 1 0 0-1.97.985.985 0 0 0 0 1.97ZM114.947 48.358a.807.807 0 1 0 0-1.615.807.807 0 0 0 0 1.614Zm174.825 124.12a1.198 1.198 0 1 0 0-2.395 1.198 1.198 0 0 0 0 2.395ZM164.428 75.586a.914.914 0 1 0 0-1.828.914.914 0 0 0 0 1.828Zm-35.41 215.5a.72.72 0 1 0 0-1.438.72.72 0 0 0 0 1.438Zm.896-177.141a.879.879 0 1 0 0-1.758.879.879 0 0 0 0 1.758Zm202.072 23.997a.95.95 0 1 0 0-1.898.95.95 0 0 0 0 1.898ZM91.51 116.482a.87.87 0 1 0 0-1.74.87.87 0 0 0 0 1.74Zm230.125 27.009a1.758 1.758 0 1 0 0-3.515 1.758 1.758 0 0 0 0 3.515Zm-39.32 48.947a1.144 1.144 0 1 0 .002-2.288 1.144 1.144 0 0 0-.002 2.288Zm-15.487-58.674a.906.906 0 1 0-.001-1.811.906.906 0 0 0 .001 1.811Zm-12.244-38.607a1.224 1.224 0 1 0 0-2.45 1.224 1.224 0 0 0 0 2.45Zm-31.836 216.607a.71.71 0 1 0 0-1.42.71.71 0 0 0 0 1.42ZM219.25 53.24a.754.754 0 1 0 0-1.508.754.754 0 0 0 0 1.507Zm-54.864 267.027a.968.968 0 1 0 .001-1.935.968.968 0 0 0-.001 1.935Zm-68.65-152.726a1.1 1.1 0 1 0 0-2.202 1.1 1.1 0 0 0 0 2.202Zm211.079 25.261a.79.79 0 1 0 0-1.58.79.79 0 0 0 0 1.58Zm-.001-49.136a.923.923 0 1 0 0-1.845.923.923 0 0 0 0 1.845ZM108.65 299.126a.736.736 0 1 0 0-1.472.736.736 0 0 0 0 1.472Zm72.199 34.409a.994.994 0 1 0 0-1.988.994.994 0 0 0 0 1.988Zm92.035-222.102a.764.764 0 1 0 0-1.527.764.764 0 0 0 0 1.527ZM114.257 89.155a.843.843 0 1 0 0-1.685.843.843 0 0 0 0 1.685Zm97.177 3.03a.754.754 0 1 0-.001-1.51.754.754 0 0 0 .001 1.51Zm42.732-23.541a1.092 1.092 0 1 0 0-2.183 1.092 1.092 0 0 0 0 2.183Zm52.312 154.821a.994.994 0 1 0 0-1.988.994.994 0 0 0 0 1.988ZM127.144 101.459a.888.888 0 1 0 0-1.776.888.888 0 0 0 0 1.776Zm159.807 122.103a.994.994 0 1 0 0-1.988.994.994 0 0 0 0 1.988ZM204.506 31.896a.79.79 0 1 0 0-1.58.79.79 0 0 0 0 1.58Zm137.513 177.512a.79.79 0 1 0 0-1.58.79.79 0 0 0 0 1.58ZM155.377 93.725a.727.727 0 1 0 0-1.454.727.727 0 0 0 0 1.454Zm4.08 247.516a.762.762 0 1 0 .002-1.524.762.762 0 0 0-.002 1.524ZM89.15 266.527a.976.976 0 1 0 0-1.953.976.976 0 0 0 0 1.953Zm153.514 30.408a1.865 1.865 0 1 0-.001-3.73 1.865 1.865 0 0 0 .001 3.73ZM80.887 94.861a.808.808 0 1 0 0-1.615.808.808 0 0 0 0 1.615Zm-34.009 106.78a.719.719 0 1 0 0-1.438.719.719 0 0 0 0 1.438Zm292.463-37.319a.79.79 0 1 0 0-1.58.79.79 0 0 0 0 1.58ZM56.976 255.258a.914.914 0 1 0 0-1.828.914.914 0 0 0 0 1.828ZM219.971 44.117a1.074 1.074 0 1 0 0-2.149 1.074 1.074 0 0 0 0 2.148ZM330.802 184.28a1.234 1.234 0 1 0 0-2.468 1.234 1.234 0 0 0 0 2.468Zm-84.429-99.243a1.003 1.003 0 1 0-.002-2.005 1.003 1.003 0 0 0 .002 2.005Zm57.602 175.484a.986.986 0 1 0 0-1.972.986.986 0 0 0 0 1.972Zm-135.5 18.202a1.145 1.145 0 1 0 0-2.29 1.145 1.145 0 0 0 0 2.29Zm93.498-26.695a.737.737 0 1 0 0-1.474.737.737 0 0 0 0 1.474Zm-149.37-128.473a1.047 1.047 0 1 0 .002-2.094 1.047 1.047 0 0 0-.002 2.094Zm-25.254 70.719a.932.932 0 1 0 0-1.864.932.932 0 0 0 0 1.864Zm25.551-24.851a1.979 1.979 0 1 0 0-3.958 1.979 1.979 0 0 0 0 3.958Zm-43.755 9.588a.844.844 0 1 0-.001-1.687.844.844 0 0 0 0 1.687Zm48.536-120.296a1.11 1.11 0 1 0 0-2.22 1.11 1.11 0 0 0 0 2.22Zm3.082 267.525a.905.905 0 1 0 0-1.81.905.905 0 0 0 0 1.81Zm204.414-194.199a1.003 1.003 0 1 0 0-2.006 1.003 1.003 0 0 0 0 2.006Zm12.487-13.161a1.082 1.082 0 1 0 .001-2.165 1.082 1.082 0 0 0-.001 2.165ZM91.225 207.835a.958.958 0 1 0 0-1.917.958.958 0 0 0 0 1.917Zm107.517 81.405a.772.772 0 1 0 0-1.544.772.772 0 0 0 0 1.544Zm4.719-195.868a1.145 1.145 0 1 0 0-2.29 1.145 1.145 0 0 0 0 2.29Zm41.508-31.311a.843.843 0 1 0 0-1.687.843.843 0 0 0 0 1.687Zm15.383 57.892a1.012 1.012 0 1 0-.001-2.023 1.012 1.012 0 0 0 .001 2.023ZM55.45 251.122a1.03 1.03 0 1 0 0-2.06 1.03 1.03 0 0 0 0 2.06Zm36.785-124.644a1.003 1.003 0 1 0 0-2.005 1.003 1.003 0 0 0 0 2.005Zm170.103-12.517a.816.816 0 1 0 0-1.632.816.816 0 0 0 0 1.632Zm4.596-22.32a1.145 1.145 0 1 0 0-2.29 1.145 1.145 0 0 0 0 2.29ZM185.962 31.93a1.224 1.224 0 1 0 0-2.449 1.224 1.224 0 0 0 0 2.449ZM81.47 286.524a.754.754 0 1 0 0-1.508.754.754 0 0 0 0 1.508ZM250.776 67.032a.737.737 0 1 0 0-1.474.737.737 0 0 0 0 1.474Z"/><path d="M317.692 172.903a.95.95 0 1 0 0-1.898.95.95 0 0 0 0 1.898Zm-6.723 86.792a1.775 1.775 0 1 0 0-3.55 1.775 1.775 0 0 0 0 3.55ZM92.227 270.116a.728.728 0 1 0 0-1.456.728.728 0 0 0 0 1.456ZM222.634 56.122a1.047 1.047 0 1 0 0-2.095 1.047 1.047 0 0 0 0 2.095Zm-57.115 227.89a1.208 1.208 0 1 0-.002-2.416 1.208 1.208 0 0 0 .002 2.416Zm-23.206 21.062a.718.718 0 1 0 .001-1.437.718.718 0 0 0-.001 1.437Zm145.4-122.294a.958.958 0 1 0 .001-1.917.958.958 0 0 0-.001 1.917Zm-95.433-82.157a1.083 1.083 0 1 0 0-2.166 1.083 1.083 0 0 0 0 2.166ZM43.086 230.967a.71.71 0 1 0 0-1.42.71.71 0 0 0 0 1.42Zm95.543-111.465a.79.79 0 1 0 0-1.58.79.79 0 0 0 0 1.58Zm178.622 151.392a.994.994 0 1 0 0-1.988.994.994 0 0 0 0 1.988ZM179.801 79.13a1.73 1.73 0 1 0-.001-3.462 1.73 1.73 0 0 0 .001 3.461Zm100.741 70.22a1.509 1.509 0 1 0 0-3.018 1.509 1.509 0 0 0 0 3.018ZM90.195 115.559a.95.95 0 1 0 0-1.899.95.95 0 0 0 0 1.899Zm201.522-14.262a1.208 1.208 0 1 0-.002-2.416 1.208 1.208 0 0 0 .002 2.416Zm30.314 131.676a1.128 1.128 0 1 0 0-2.256 1.128 1.128 0 0 0 0 2.256Zm-148.436 48.883a1.713 1.713 0 1 0 0-3.426 1.713 1.713 0 0 0 0 3.426Zm109.665-154.74a.728.728 0 1 0-.002-1.456.728.728 0 0 0 .002 1.456ZM56.622 138.075a.967.967 0 1 0 0-1.934.967.967 0 0 0 0 1.934Zm269.14 78.795a.746.746 0 1 0-.002-1.492.746.746 0 0 0 .002 1.492Zm-241.804-9.787a.754.754 0 1 0 0-1.509.754.754 0 0 0 0 1.509Zm206.607 21.648a.718.718 0 1 0 0-1.437.718.718 0 0 0 0 1.437ZM73.956 81.108a1.118 1.118 0 1 0 0-2.237 1.118 1.118 0 0 0 0 2.237Zm37.68 140.37a.755.755 0 1 0-.002-1.51.755.755 0 0 0 .002 1.51ZM275.335 96.32a.932.932 0 1 0 0-1.864.932.932 0 0 0 0 1.865Zm58.024 52.488a1.988 1.988 0 1 0 0-3.976 1.988 1.988 0 0 0 0 3.976Zm-40.429 33.779a1.243 1.243 0 1 0-.002-2.486 1.243 1.243 0 0 0 .002 2.486ZM68.924 231.088a.727.727 0 1 0 0-1.454.727.727 0 0 0 0 1.454ZM293.155 64.243a.737.737 0 1 0-.001-1.473.737.737 0 0 0 .001 1.473ZM119.786 289.762a.8.8 0 1 0 0-1.599.8.8 0 0 0 0 1.599Zm201.439-173.1a.79.79 0 1 0 0-1.58.79.79 0 0 0 0 1.58Zm-12.832 77.452a1.162 1.162 0 1 0 0-2.323 1.162 1.162 0 0 0 0 2.323Zm-31.792-56.356a1.126 1.126 0 1 0 .001-2.253 1.126 1.126 0 0 0-.001 2.253ZM167.88 97.999a.746.746 0 1 0 0-1.492.746.746 0 0 0 0 1.492Zm158.066 135.202a.807.807 0 1 0 .001-1.615.807.807 0 0 0-.001 1.615Zm-28.099-39.051a.887.887 0 1 0 0-1.774.887.887 0 0 0 0 1.774Z"/><path d="M165.21 283.709a.889.889 0 1 0-.001-1.777.889.889 0 0 0 .001 1.777ZM70.733 181.272a.808.808 0 1 0 0-1.616.808.808 0 0 0 0 1.616Zm171.931 103.51a.737.737 0 1 0 0-1.474.737.737 0 0 0 0 1.474Zm73.859-166.427a1.091 1.091 0 1 0 0-2.182 1.091 1.091 0 0 0 0 2.182Zm14.326 110.019a1.074 1.074 0 1 0 0-2.147 1.074 1.074 0 0 0 0 2.147ZM137.565 113.855a.764.764 0 1 0-.001-1.527.764.764 0 0 0 .001 1.527Zm-14.306-68.229a1.03 1.03 0 1 0-.001-2.06 1.03 1.03 0 0 0 .001 2.06Zm-3.04 69.713a.941.941 0 1 0-.002-1.882.941.941 0 0 0 .002 1.882Zm170.794 100.573a.888.888 0 1 0-.001-1.775.888.888 0 0 0 .001 1.775Zm-91.189 66.014a1.535 1.535 0 1 0 0-3.07 1.535 1.535 0 0 0 0 3.07Zm-4.415 13.819a.825.825 0 1 0 0-1.65.825.825 0 0 0 0 1.65Zm135.915-135.266a.745.745 0 1 0 .002-1.49.745.745 0 0 0-.002 1.49Zm-33.555 111.144a2.015 2.015 0 1 0-.001-4.03 2.015 2.015 0 0 0 .001 4.03Zm-194.713-87.317a.772.772 0 1 0 0-1.545.772.772 0 0 0 0 1.545Zm21.335 126.696a.923.923 0 1 0 0-1.845.923.923 0 0 0 0 1.845Zm93.013 1.891a.924.924 0 1 0 0-1.847.924.924 0 0 0 0 1.847Z"/><path d="M123.388 309.438a1.243 1.243 0 1 0 0-2.486 1.243 1.243 0 0 0 0 2.486Zm117.421 16.244a1.119 1.119 0 1 0-.001-2.237 1.119 1.119 0 0 0 .001 2.237ZM59.578 226.326a.773.773 0 1 0 0-1.545.773.773 0 0 0 0 1.545Zm25.579-59.731a.755.755 0 1 0 0-1.51.755.755 0 0 0 0 1.51Zm138.621 154.834a1.172 1.172 0 1 0 0-2.345 1.172 1.172 0 0 0 0 2.345Zm27.842-30.336a1.056 1.056 0 1 0 0-2.113 1.056 1.056 0 0 0 0 2.113ZM158.89 88.039a.799.799 0 1 0 0-1.598.799.799 0 0 0 0 1.598Zm74.765-44.748a.906.906 0 1 0 0-1.812.906.906 0 0 0 0 1.812Zm6.934 71.177a.843.843 0 1 0 0-1.687.843.843 0 0 0 0 1.687ZM112.64 232.153a.754.754 0 1 0 0-1.508.754.754 0 0 0 0 1.508ZM278.73 62.47a1.18 1.18 0 1 0 0-2.362 1.18 1.18 0 0 0 0 2.362Zm4.474 221.176a1.181 1.181 0 1 0 0-2.362 1.181 1.181 0 0 0 0 2.362ZM97.272 120.849a.985.985 0 1 0 0-1.97.985.985 0 0 0 0 1.97Zm101.031 175.784a.898.898 0 1 0-.001-1.795.898.898 0 0 0 .001 1.795Zm94.967-18.995a.852.852 0 1 0 0-1.704.852.852 0 0 0 0 1.704Zm-128.68 39.969a1.065 1.065 0 1 0 0-2.13 1.065 1.065 0 0 0 0 2.13ZM53.428 206.326a1.216 1.216 0 1 0 0-2.431 1.216 1.216 0 0 0 0 2.431Zm96.283-132.07a1.02 1.02 0 1 0 0-2.041 1.02 1.02 0 0 0 0 2.041ZM78.56 280.339a.763.763 0 1 0 0-1.527.763.763 0 0 0 0 1.527Zm250.98-117.05a.914.914 0 1 0 0-1.827.914.914 0 0 0 0 1.827Zm-218.574 67.614a.95.95 0 1 0 .001-1.899.95.95 0 0 0-.001 1.899Zm234.94-78.439a.861.861 0 1 0 0-1.722.861.861 0 0 0 0 1.722Zm-67.212 62.053a1.082 1.082 0 1 0 0-2.165 1.082 1.082 0 0 0 0 2.165ZM50.613 193.696a1.162 1.162 0 1 0 0-2.324 1.162 1.162 0 0 0 0 2.324ZM271.268 77.022a1.234 1.234 0 1 0 .001-2.467 1.234 1.234 0 0 0-.001 2.467Zm26.953 26.674a1.145 1.145 0 1 0 0-2.29 1.145 1.145 0 0 0 0 2.29Zm-53.337 160.827a.781.781 0 1 0 0-1.563.781.781 0 0 0 0 1.563Zm9.841 41.838a.807.807 0 1 0 0-1.613.807.807 0 0 0 0 1.613ZM106.623 55.459a1.198 1.198 0 1 0 0-2.396 1.198 1.198 0 0 0 0 2.396Z"/><path d="M83.492 167.232a1.198 1.198 0 1 0 0-2.396 1.198 1.198 0 0 0 0 2.396ZM186.507 42.066a1.207 1.207 0 1 0 0-2.413 1.207 1.207 0 0 0 0 2.413ZM72.143 151.665a1.162 1.162 0 1 0 0-2.324 1.162 1.162 0 0 0 0 2.324Zm-25.154-4.03a1.199 1.199 0 1 0-.001-2.397 1.199 1.199 0 0 0 0 2.397ZM276.39 265.959a1.234 1.234 0 1 0 0-2.468 1.234 1.234 0 0 0 0 2.468ZM149.51 71.425a1.172 1.172 0 1 0 0-2.344 1.172 1.172 0 0 0 0 2.344Zm-79.673 56.479a.887.887 0 1 0 0-1.775.887.887 0 0 0 0 1.775Zm186.784-39.946a1.047 1.047 0 1 0 0-2.095 1.047 1.047 0 0 0 0 2.095Zm-147.448 2.789a.87.87 0 1 0 0-1.739.87.87 0 0 0 0 1.74Zm27.274 184.232a1.119 1.119 0 1 0-.002-2.238 1.119 1.119 0 0 0 .002 2.238Zm-54.934 1.417a.887.887 0 1 0 .001-1.774.887.887 0 0 0 0 1.774Zm252.696-95.718a1.198 1.198 0 1 0 0-2.397 1.198 1.198 0 0 0 0 2.397ZM77.787 259.702a1.039 1.039 0 1 0 0-2.077 1.039 1.039 0 0 0 0 2.077Zm213.062-40.79a.807.807 0 1 0 0-1.613.807.807 0 0 0 0 1.613ZM232.924 80.408a1.1 1.1 0 1 0 0-2.201 1.1 1.1 0 0 0 0 2.201Zm-59.885-51.55a1.056 1.056 0 1 0 0-2.112 1.056 1.056 0 0 0 0 2.112Zm14.636 307.409a.79.79 0 1 0 0-1.58.79.79 0 0 0 0 1.58ZM232.411 95.77a.994.994 0 1 0 0-1.989.994.994 0 0 0 0 1.988Zm52.934 33.616a1.19 1.19 0 1 0 0-2.378 1.19 1.19 0 0 0 0 2.378ZM91.996 55.449a.976.976 0 1 0 0-1.953.976.976 0 0 0 0 1.953Zm16.489 61.098a.833.833 0 1 0 .001-1.667.833.833 0 0 0-.001 1.667Zm188.379 110.404a1.02 1.02 0 1 0 0-2.041 1.02 1.02 0 0 0 0 2.041Zm-29.965 28.936a1.846 1.846 0 1 0 0-3.692 1.846 1.846 0 0 0 0 3.692Zm-165.822-68.231a1.677 1.677 0 1 0 0-3.355 1.677 1.677 0 0 0 0 3.355Zm220.546-60.54a.959.959 0 1 0 0-1.918.959.959 0 0 0 0 1.918ZM90.073 294.093a.861.861 0 1 0 0-1.723.861.861 0 0 0 0 1.723ZM67.518 127.284a.728.728 0 1 0 0-1.456.728.728 0 0 0 0 1.456ZM249.667 327.42a1.1 1.1 0 1 0 0-2.2 1.1 1.1 0 0 0 0 2.2Zm-51.647-21.806a.737.737 0 1 0 0-1.474.737.737 0 0 0 0 1.474ZM63.375 109.473a.914.914 0 1 0 0-1.828.914.914 0 0 0 0 1.828Zm224.394 21.797a1.047 1.047 0 1 0 0-2.095 1.047 1.047 0 0 0 0 2.095ZM76.466 253.268a.728.728 0 1 0 0-1.456.728.728 0 0 0 0 1.456Zm263.888-120.659a.799.799 0 1 0 0-1.597.799.799 0 0 0 0 1.597ZM91.04 186.286a1.03 1.03 0 1 0-.001-2.06 1.03 1.03 0 0 0 0 2.06Zm99.869-93.466a.816.816 0 1 0 0-1.631.816.816 0 0 0 0 1.632Zm137.907 144.66a1.19 1.19 0 1 0 .001-2.379 1.19 1.19 0 0 0-.001 2.379ZM150.254 109.684a1.012 1.012 0 1 0 0-2.024 1.012 1.012 0 0 0 0 2.024Zm60.608-72.287a.807.807 0 1 0 0-1.615.807.807 0 0 0 0 1.615Zm-99.887 91.263a1.11 1.11 0 1 0 .002-2.218 1.11 1.11 0 0 0-.002 2.218Zm.805 53.198a.842.842 0 1 0 .001-1.685.842.842 0 0 0-.001 1.685Zm-57.273-33.255a.772.772 0 1 0 0-1.545.772.772 0 0 0 0 1.545Zm22.348-32.368a1.127 1.127 0 1 0 0-2.255 1.127 1.127 0 0 0 0 2.255Zm249.313-4.623a.923.923 0 1 0 0-1.847.923.923 0 0 0 0 1.847ZM192.477 83.265a1.056 1.056 0 1 0 0-2.113 1.056 1.056 0 0 0 0 2.113Zm126.874 25.008a1.092 1.092 0 1 0 0-2.184 1.092 1.092 0 0 0 0 2.184Zm-204.32 34.934a.72.72 0 1 0 0-1.438.72.72 0 0 0 0 1.438Zm150.808 132.115a.87.87 0 1 0-.002-1.74.87.87 0 0 0 .002 1.74Zm-138.991-34.167a1.02 1.02 0 1 0 0-2.042 1.02 1.02 0 0 0 0 2.042Zm18.535 56.461a1.234 1.234 0 1 0-.002-2.468 1.234 1.234 0 0 0 .002 2.468Zm202.44-92.113a.976.976 0 1 0 0-1.952.976.976 0 0 0 0 1.952Zm-84.498 70.69a.905.905 0 1 0 0-1.81.905.905 0 0 0 0 1.81Zm-67.603 35.112a1.128 1.128 0 1 0-.001-2.255 1.128 1.128 0 0 0 .001 2.255Zm7.706-17.741a.773.773 0 1 0 0-1.545.773.773 0 0 0 0 1.545Zm75.908-189.694a1.039 1.039 0 1 0-.001-2.077 1.039 1.039 0 0 0 .001 2.077Zm27.972 191.899a.78.78 0 1 0 0-1.562.78.78 0 0 0 0 1.562ZM73.175 107.243a1.162 1.162 0 1 0 0-2.324 1.162 1.162 0 0 0 0 2.324Zm170.836 187.853a.923.923 0 1 0 0-1.845.923.923 0 0 0 0 1.845Zm92.738-86.745a1.172 1.172 0 1 0-.001-2.343 1.172 1.172 0 0 0 .001 2.343ZM66.18 166.389a.94.94 0 1 0 0-1.881.94.94 0 0 0 0 1.881Zm22.522 15.078a1.136 1.136 0 1 0 .001-2.271 1.136 1.136 0 0 0 0 2.271Zm132.411-151.35a1.189 1.189 0 1 0 0-2.378 1.189 1.189 0 0 0 0 2.378Zm-32.304 268.848a1.126 1.126 0 1 0 .001-2.253 1.126 1.126 0 0 0-.001 2.253ZM73.224 119.26a1.1 1.1 0 1 0 0-2.202 1.1 1.1 0 0 0 0 2.202Zm43.909 153.658a1.828 1.828 0 1 0 .001-3.657 1.828 1.828 0 0 0-.001 3.657ZM74.72 161.198a1.837 1.837 0 1 0-.001-3.675 1.837 1.837 0 0 0 0 3.675Zm-3.759 17.681a.897.897 0 1 0 0-1.794.897.897 0 0 0 0 1.794Zm103.213 146.065a.958.958 0 1 0 .001-1.917.958.958 0 0 0-.001 1.917Zm69.154-246.49a.932.932 0 1 0 0-1.864.932.932 0 0 0 0 1.864Zm97.814 117.677a.923.923 0 1 0 0-1.845.923.923 0 0 0 0 1.845Zm-89.846 109.13a.861.861 0 1 0 0-1.722.861.861 0 0 0 0 1.722Z"/><path d="M267.276 253.162a.79.79 0 1 0 0-1.58.79.79 0 0 0 0 1.58Zm28.063 7.667a.835.835 0 1 0-.002-1.67.835.835 0 0 0 .002 1.67Zm-103.053 86.179a.8.8 0 1 0 0-1.599.8.8 0 0 0 0 1.599Zm141.622-99.773a.72.72 0 1 0 0-1.438.72.72 0 0 0 0 1.438Zm-210.934 40.948a.879.879 0 1 0 0-1.758.879.879 0 0 0 0 1.758Zm-61.127-121.75a.976.976 0 1 0 0-1.952.976.976 0 0 0 0 1.952Zm37.622-41.428a.772.772 0 1 0 0-1.543.772.772 0 0 0 0 1.543Zm182.253 187.559a1.198 1.198 0 1 0 0-2.396 1.198 1.198 0 0 0 0 2.396Zm-5.9-249.722a1.1 1.1 0 1 0 0-2.2 1.1 1.1 0 0 0 0 2.2Zm-175.205 73.211a.843.843 0 1 0 0-1.686.843.843 0 0 0 0 1.686Zm120.206 195.398a1.082 1.082 0 1 0 0-2.165 1.082 1.082 0 0 0 0 2.165ZM245.807 54.89a.861.861 0 1 0 0-1.723.861.861 0 0 0 0 1.723ZM139.318 51.8a.976.976 0 1 0 0-1.952.976.976 0 0 0 0 1.952Zm49.385 4.118a1.11 1.11 0 1 0-.001-2.219 1.11 1.11 0 0 0 .001 2.219Zm-63.112 214.949a1.092 1.092 0 1 0 0-2.184 1.092 1.092 0 0 0 0 2.184Zm199.587-151.641a1.172 1.172 0 1 0-.001-2.343 1.172 1.172 0 0 0 .001 2.343ZM247.65 74.147a1.153 1.153 0 1 0 .001-2.307 1.153 1.153 0 0 0-.001 2.307ZM79.26 291.397a1.234 1.234 0 1 0 0-2.467 1.234 1.234 0 0 0 0 2.467Zm51.072-164.421a.86.86 0 1 0-.002-1.722.86.86 0 0 0 .002 1.722Zm2.702 200.372a1.047 1.047 0 1 0 0-2.093 1.047 1.047 0 0 0 0 2.093ZM84.052 153.103a1.083 1.083 0 1 0 0-2.166 1.083 1.083 0 0 0 0 2.166Zm213.355 28.783a.861.861 0 1 0 0-1.722.861.861 0 0 0 0 1.722ZM242.338 71.558a1.073 1.073 0 1 0 0-2.147 1.073 1.073 0 0 0 0 2.147ZM101.253 257.689a.906.906 0 1 0 0-1.811.906.906 0 0 0 0 1.811Zm-9.309-47.464a1.136 1.136 0 1 0 0-2.271 1.136 1.136 0 0 0 0 2.271Zm-24.023-99.582a1.003 1.003 0 1 0 0-2.006 1.003 1.003 0 0 0 0 2.006Zm185.483 135.364a.78.78 0 1 0 0-1.562.78.78 0 0 0 0 1.562ZM182.966 94.802a1.961 1.961 0 1 0 0-3.923 1.961 1.961 0 0 0 0 3.923Zm-44.362-38.579a1.127 1.127 0 1 0 0-2.255 1.127 1.127 0 0 0 0 2.255Zm21.651 22.087a.87.87 0 1 0 0-1.74.87.87 0 0 0 0 1.74Zm171.344 27.167a.932.932 0 1 0 0-1.863.932.932 0 0 0 0 1.863Zm-32.483 36.915a1.18 1.18 0 1 0 0-2.36 1.18 1.18 0 0 0 0 2.36Zm-90.952-97.958a1.145 1.145 0 1 0 0-2.289 1.145 1.145 0 0 0 0 2.29ZM87.132 129.778a.932.932 0 1 0 0-1.864.932.932 0 0 0 0 1.864Zm87.883-83.331a.79.79 0 1 0 0-1.58.79.79 0 0 0 0 1.58Zm-71.22 159.596a.72.72 0 1 0 0-1.438.72.72 0 0 0 0 1.438Zm201.065 12.433a.798.798 0 1 0 .001-1.597.798.798 0 0 0-.001 1.597Zm-17.61-65.222a.897.897 0 1 0-.001-1.793.897.897 0 0 0 .001 1.793Zm-41.101-73.317a.959.959 0 1 0 0-1.918.959.959 0 0 0 0 1.918Zm-93.421 193.362a1.199 1.199 0 1 0 0-2.398 1.199 1.199 0 0 0 0 2.398Zm-6.78-170.254a.923.923 0 1 0 0-1.845.923.923 0 0 0 0 1.845Zm38.979 189.602a1.234 1.234 0 1 0 0-2.468 1.234 1.234 0 0 0 0 2.468Zm154.447-126.153a.923.923 0 1 0 0-1.847.923.923 0 0 0 0 1.847ZM184.993 271.977a1.65 1.65 0 1 0 0-3.3 1.65 1.65 0 0 0 0 3.3Zm-67.355-36.452a1.083 1.083 0 1 0 0-2.166 1.083 1.083 0 0 0 0 2.166Zm19.89 39a1.1 1.1 0 1 0 .002-2.2 1.1 1.1 0 0 0-.002 2.2Zm-75.891-75.546a.923.923 0 1 0 0-1.846.923.923 0 0 0 0 1.846Zm237.855 4.613a1.02 1.02 0 1 0 0-2.042 1.02 1.02 0 0 0 0 2.042ZM93.24 149.581a1.154 1.154 0 1 0-.001-2.308 1.154 1.154 0 0 0 0 2.308Zm29.27-24.622a.727.727 0 1 0 .002-1.454.727.727 0 0 0-.002 1.454Zm-52.233-8.255a.932.932 0 1 0 0-1.865.932.932 0 0 0 0 1.865Zm214.692 126.937a1.11 1.11 0 1 0-.002-2.22 1.11 1.11 0 0 0 .002 2.22ZM271.296 87.604a1.039 1.039 0 1 0 0-2.077 1.039 1.039 0 0 0 0 2.077Zm-96.102-47.481a1.18 1.18 0 1 0 0-2.36 1.18 1.18 0 0 0 0 2.36Zm76.334 262.243a1.74 1.74 0 1 0-.002-3.48 1.74 1.74 0 0 0 .002 3.48ZM77.503 214.705a1.1 1.1 0 1 0 0-2.202 1.1 1.1 0 0 0 0 2.202ZM247.82 322.432a1.101 1.101 0 1 0 0-2.202 1.101 1.101 0 0 0 0 2.202Zm57.787-178.312a1.17 1.17 0 1 0 0-2.341 1.17 1.17 0 0 0 0 2.341Zm-24.383 145.126a1.225 1.225 0 1 0 0-2.45 1.225 1.225 0 0 0 0 2.45ZM94.72 170.553a.71.71 0 1 0 0-1.42.71.71 0 0 0 0 1.42Zm73.604-102.528a.887.887 0 1 0 0-1.774.887.887 0 0 0 0 1.774Zm143.714 109.424a.718.718 0 1 0 .001-1.437.718.718 0 0 0-.001 1.437ZM234.125 51.338a.923.923 0 1 0 0-1.847.923.923 0 0 0 0 1.847ZM250.75 77.46a.728.728 0 1 0 0-1.456.728.728 0 0 0 0 1.455Zm-107.82 29.447a.835.835 0 1 0 0-1.67.835.835 0 0 0 0 1.67Zm-40.803 11.042a1.108 1.108 0 1 0 0-2.219 1.11 1.11 0 0 0 0 2.219Zm23.563 10.044a1.163 1.163 0 1 0 0-2.325 1.163 1.163 0 0 0 0 2.325Zm14.649 159.809a1.083 1.083 0 1 0 0-2.166 1.083 1.083 0 0 0 0 2.166Zm57.487-185.581a1.234 1.234 0 1 0 0-2.468 1.234 1.234 0 0 0 0 2.468Zm-84.388-48.734a1.056 1.056 0 1 0 0-2.112 1.056 1.056 0 0 0 0 2.112Zm74.676 271.699a.728.728 0 1 0 0-1.456.728.728 0 0 0 0 1.456Zm96.164-228.857a.932.932 0 1 0 0-1.864.932.932 0 0 0 0 1.864ZM65.868 263.588a1.136 1.136 0 1 0 0-2.271 1.136 1.136 0 0 0 0 2.271Zm183.543 42.907a1.056 1.056 0 1 0 0-2.113 1.056 1.056 0 0 0 0 2.113ZM127.276 97.737a.745.745 0 1 0 0-1.49.745.745 0 0 0 0 1.49Zm54.257-20.359a.764.764 0 1 0 0-1.527.764.764 0 0 0 0 1.527Zm-73.685 225.537a.95.95 0 1 0 0-1.899.95.95 0 0 0 0 1.899Zm210.077-40.673a1.172 1.172 0 1 0-.001-2.343 1.172 1.172 0 0 0 .001 2.343Zm16.286-63.3a.932.932 0 1 0 0-1.865.932.932 0 0 0 0 1.865ZM207.794 302.357a1.065 1.065 0 1 0 0-2.13 1.065 1.065 0 0 0 0 2.13ZM122.449 80.184a1.207 1.207 0 1 0 0-2.415 1.207 1.207 0 0 0 0 2.415Zm-2.878 204.92a.94.94 0 1 0 0-1.881.94.94 0 0 0 0 1.881Zm164.513-116.557a1.19 1.19 0 1 0 0-2.379 1.19 1.19 0 0 0 0 2.379Zm28.304-74.989a1.074 1.074 0 1 0 0-2.148 1.074 1.074 0 0 0 0 2.148Zm30.084 114.784a.807.807 0 1 0 0-1.615.807.807 0 0 0 0 1.615Zm-89.603 53.916a.8.8 0 1 0 0-1.599.8.8 0 0 0 0 1.599ZM225.783 69.464a.843.843 0 1 0 0-1.687.843.843 0 0 0 0 1.687Zm-99.406 225.623a.985.985 0 1 0 0-1.97.985.985 0 0 0 0 1.97Zm146.774-155.899a1.225 1.225 0 1 0-.002-2.45 1.225 1.225 0 0 0 .002 2.45Zm39.316 160.585a1.092 1.092 0 1 0 0-2.184 1.092 1.092 0 0 0 0 2.184Zm18.893-110.149a1.97 1.97 0 1 0 .002-3.94 1.97 1.97 0 0 0-.002 3.94ZM137.226 89.183a1.19 1.19 0 1 0 0-2.38 1.19 1.19 0 0 0 0 2.38Zm-60.404 103.53a2.015 2.015 0 1 0 0-4.03 2.015 2.015 0 0 0 0 4.03ZM287.767 82.616a.861.861 0 1 0 0-1.722.861.861 0 0 0 0 1.722Zm9.122 217.788a.968.968 0 1 0-.002-1.936.968.968 0 0 0 .002 1.936Zm-40.782-16.26a1.092 1.092 0 1 0 0-2.184 1.092 1.092 0 0 0 0 2.184Zm15.854-44.089a1.012 1.012 0 1 0 0-2.024 1.012 1.012 0 0 0 0 2.024Zm-183.167-32.98a1.128 1.128 0 1 0 0-2.255 1.128 1.128 0 0 0 0 2.255Zm156.746 90.674a1.074 1.074 0 1 0 0-2.147 1.074 1.074 0 0 0 0 2.147Zm53.394-123.409a1.126 1.126 0 1 0 .001-2.253 1.126 1.126 0 0 0-.001 2.253Zm-224.419 1.757a.746.746 0 1 0 0-1.492.746.746 0 0 0 0 1.492Zm34.851 135.133a1.207 1.207 0 1 0 0-2.414 1.207 1.207 0 0 0 0 2.414Zm173.588-53.347a1.092 1.092 0 1 0 0-2.184 1.092 1.092 0 0 0 0 2.184Zm22.583-54.414a1.03 1.03 0 1 0 0-2.059 1.03 1.03 0 0 0 0 2.059ZM250.755 96.195a.817.817 0 1 0 0-1.633.817.817 0 0 0 0 1.633Zm42.17 28.207a.976.976 0 1 0 .001-1.953.976.976 0 0 0-.001 1.953Zm15.91-22.588a1.198 1.198 0 1 0 0-2.395 1.198 1.198 0 0 0 0 2.395ZM202.501 331.769a.994.994 0 1 0 0-1.988.994.994 0 0 0 0 1.988ZM46.959 250.235a.817.817 0 1 0-.001-1.634.817.817 0 0 0 0 1.634Zm34.035 19.318a1.216 1.216 0 1 0 0-2.431 1.216 1.216 0 0 0 0 2.431ZM208.555 37.176a1.144 1.144 0 1 0 0-2.288 1.144 1.144 0 0 0 0 2.288Zm-45.469 238.67a.906.906 0 1 0-.001-1.811.906.906 0 0 0 .001 1.811Zm2.656 66.066a.923.923 0 1 0 0-1.845.923.923 0 0 0 0 1.845Zm126.045-79.68a.87.87 0 1 0-.001-1.741.87.87 0 0 0 .001 1.741ZM187.558 41.072a.808.808 0 1 0 0-1.616.808.808 0 0 0 0 1.616Zm-64.136 191.003a1.064 1.064 0 1 0 0-2.13 1.065 1.065 0 0 0 0 2.13Zm-15.236-15.729a1.216 1.216 0 1 0 0-2.432 1.216 1.216 0 0 0 0 2.432Zm7.883 76.878a.87.87 0 1 0 0-1.74.87.87 0 0 0 0 1.74ZM346.812 130.49a.807.807 0 1 0 .001-1.615.807.807 0 0 0-.001 1.615Z"/><path d="M188.81 57.518a1.038 1.038 0 1 0 0-2.077 1.038 1.038 0 0 0 0 2.077ZM85.223 194.275a1.083 1.083 0 1 0 0-2.166 1.083 1.083 0 0 0 0 2.166Zm202.828 88.379a.968.968 0 1 0 0-1.936.968.968 0 0 0 0 1.936ZM47.497 204.402a1.109 1.109 0 1 0 0-2.218 1.109 1.109 0 0 0 0 2.218ZM259.688 81.126a.967.967 0 1 0 0-1.934.967.967 0 0 0 0 1.934Zm-153.998 7.8a1.225 1.225 0 1 0 0-2.449 1.225 1.225 0 0 0 0 2.45Zm-27.095 32.901a1.171 1.171 0 1 0 .001-2.342 1.171 1.171 0 0 0 0 2.342Zm-3.744 33.28a1.065 1.065 0 1 0 0-2.13 1.065 1.065 0 0 0 0 2.13Zm79.418 154.831a1.11 1.11 0 1 0-.002-2.22 1.11 1.11 0 0 0 .002 2.22Zm122.455-59.757a.887.887 0 1 0 .002-1.774.887.887 0 0 0-.002 1.774Zm33.247 37.647a1.206 1.206 0 1 0 .001-2.413 1.206 1.206 0 0 0-.001 2.413Zm5.291-174.353a1.136 1.136 0 1 0 0-2.272 1.136 1.136 0 0 0 0 2.272Zm23.945 92.615a1.811 1.811 0 1 0-.002-3.622 1.811 1.811 0 0 0 .002 3.622Zm-55.301 102.525a1.1 1.1 0 1 0-.001-2.201 1.1 1.1 0 0 0 .001 2.201ZM54.792 139.392a.772.772 0 1 0 0-1.545.772.772 0 0 0 0 1.545Zm217.451 1.046a.914.914 0 1 0 0-1.829.914.914 0 0 0 0 1.829ZM67.331 251.042a.976.976 0 1 0 0-1.952.976.976 0 0 0 0 1.952Zm-6.479-112.54a1.003 1.003 0 1 0 0-2.006 1.003 1.003 0 0 0 0 2.006Zm56.074-33.493a1.18 1.18 0 1 0 .001-2.36 1.18 1.18 0 0 0-.001 2.36Zm-12.398 63.679a.754.754 0 1 0 0-1.508.754.754 0 0 0 0 1.508ZM84.817 274.677a.755.755 0 1 0 0-1.51.755.755 0 0 0 0 1.51Zm76.744-181.978a.78.78 0 1 0 0-1.561.78.78 0 0 0 0 1.56Zm.846 4.623a1.18 1.18 0 1 0 0-2.36 1.18 1.18 0 0 0 0 2.36Zm-13.935 176.405a.914.914 0 1 0 0-1.829.914.914 0 0 0 0 1.829Zm147.156-90.421a1.163 1.163 0 1 0 0-2.327 1.163 1.163 0 0 0 0 2.327ZM275.845 63.285a1.074 1.074 0 1 0 0-2.149 1.074 1.074 0 0 0 0 2.148Zm15.409 257.006a.923.923 0 1 0 0-1.845.923.923 0 0 0 0 1.845Zm-83.313-27.536a.95.95 0 1 0 0-1.9.95.95 0 0 0 0 1.9Zm-19.914 25.126a.808.808 0 1 0 0-1.617.808.808 0 0 0 0 1.617Zm104.046-213.37a.994.994 0 1 0 0-1.988.994.994 0 0 0 0 1.988ZM262.922 268.42a1.234 1.234 0 1 0 0-2.468 1.234 1.234 0 0 0 0 2.468Zm29.751-139.661a.853.853 0 1 0-.001-1.705.853.853 0 0 0 .001 1.705Zm-231.89 128.12a1.012 1.012 0 1 0 0-2.024 1.012 1.012 0 0 0 0 2.024Zm274.82-134.217a1.18 1.18 0 1 0 0-2.36 1.18 1.18 0 0 0 0 2.36Zm-16.251 71.667a.851.851 0 1 0 .001-1.703.851.851 0 0 0-.001 1.703Zm23.841-21.877a1.039 1.039 0 1 0 0-2.078 1.039 1.039 0 0 0 0 2.078Zm-182.93 118.242a1.056 1.056 0 1 0 0-2.113 1.056 1.056 0 0 0 0 2.113Zm-19.481 44.031a1.119 1.119 0 1 0-.001-2.237 1.119 1.119 0 0 0 .001 2.237Zm194.965-202.113a1.118 1.118 0 1 0 0-2.236 1.118 1.118 0 0 0 0 2.236Zm-93.034 174.412a.72.72 0 1 0 0-1.438.72.72 0 0 0 0 1.438Zm-31.283-24.785a.834.834 0 1 0 0-1.668.834.834 0 0 0 0 1.668Zm85.38-157.785a.95.95 0 1 0 0-1.899.95.95 0 0 0 0 1.899Zm42.338 5.699a.737.737 0 1 0 0-1.474.737.737 0 0 0 0 1.474ZM121.061 92.254a1.092 1.092 0 1 0 0-2.184 1.092 1.092 0 0 0 0 2.184Zm24.597 225.057a.728.728 0 1 0 0-1.456.728.728 0 0 0 0 1.456Zm98.098-274.857a1.242 1.242 0 1 0 0-2.485 1.242 1.242 0 0 0 0 2.485Zm-59.742 49.418a1.03 1.03 0 1 0 0-2.06 1.03 1.03 0 0 0 0 2.06Zm-53.668 200.449a.72.72 0 1 0 0-1.438.72.72 0 0 0 0 1.438ZM213.51 49.52a.816.816 0 1 0 0-1.632.816.816 0 0 0 0 1.632Zm67.085 24.752a1.153 1.153 0 1 0 0-2.306 1.153 1.153 0 0 0 0 2.306ZM137.902 285.421a.86.86 0 1 0 .001-1.72.86.86 0 0 0-.001 1.72Zm166.816-28.914a1.154 1.154 0 1 0 0-2.309 1.154 1.154 0 0 0 0 2.309ZM70.52 111.505a1.048 1.048 0 1 0 0-2.095 1.048 1.048 0 0 0 0 2.095Zm46.569 34.286a1.198 1.198 0 1 0 0-2.396 1.198 1.198 0 0 0 0 2.396ZM232.942 39.484a1.074 1.074 0 1 0 0-2.148 1.074 1.074 0 0 0 0 2.148Zm-170.111 70.37a.923.923 0 1 0 0-1.846.923.923 0 0 0 0 1.846Zm28.685 147.187a.825.825 0 1 0 0-1.65.825.825 0 0 0 0 1.65Zm229.525-110.7a.772.772 0 1 0 0-1.545.772.772 0 0 0 0 1.545ZM105.93 213.613a.88.88 0 1 0-.001-1.76.88.88 0 0 0 .001 1.76Zm11.7 50.828a.896.896 0 1 0 0-1.792.896.896 0 0 0 0 1.792Z"/><path d="M187.297 57.409a.825.825 0 1 0 0-1.65.825.825 0 0 0 0 1.65Zm-63.577 65.135a.95.95 0 1 0 0-1.899.95.95 0 0 0 0 1.899Zm17.341 148.91a1.162 1.162 0 1 0 0-2.323 1.162 1.162 0 0 0 0 2.323Zm146.333-191.42a.746.746 0 1 0 0-1.492.746.746 0 0 0 0 1.492Zm-62.72 194.189a1.224 1.224 0 1 0 .001-2.449 1.224 1.224 0 0 0-.001 2.449Zm-50.741-3.268a.79.79 0 1 0 0-1.58.79.79 0 0 0 0 1.58Zm144.447-75.473a.967.967 0 1 0 0-1.935.967.967 0 0 0 0 1.935ZM70.192 179.567a.852.852 0 1 0 0-1.703.852.852 0 0 0 0 1.703Zm219.88 6.968a1.225 1.225 0 1 0 0-2.45 1.225 1.225 0 0 0 0 2.45Zm-16.274 94.841a.834.834 0 1 0 0-1.669.834.834 0 0 0 0 1.669Zm79.069-80.977a1.128 1.128 0 1 0-.001-2.255 1.128 1.128 0 0 0 .001 2.255ZM70.966 234.321a1.03 1.03 0 1 0 0-2.06 1.03 1.03 0 0 0 0 2.06Zm152.695 66.838a1.153 1.153 0 1 0 0-2.306 1.153 1.153 0 0 0 0 2.306Zm68.235-131.984a.879.879 0 1 0 0-1.757.879.879 0 0 0 0 1.757ZM152.759 337.287a.905.905 0 1 0 0-1.81.905.905 0 0 0 0 1.81Zm38.706-35.878a.826.826 0 1 0-.002-1.652.826.826 0 0 0 .002 1.652Zm29.268-236.944a1.127 1.127 0 1 0 0-2.254 1.127 1.127 0 0 0 0 2.254Zm-150.708 45.71a1.154 1.154 0 1 0 0-2.308 1.154 1.154 0 0 0 0 2.308Zm133.232 179.277a.746.746 0 1 0-.002-1.492.746.746 0 0 0 .002 1.492Zm97.163-209.19a.817.817 0 1 0 0-1.634.817.817 0 0 0 0 1.634ZM75.679 196.591a1.145 1.145 0 1 0-.001-2.29 1.145 1.145 0 0 0 0 2.29ZM63.235 231.23a.764.764 0 1 0 0-1.527.764.764 0 0 0 0 1.527Zm269.92-27.947a1.783 1.783 0 1 0-.001-3.567 1.783 1.783 0 0 0 .001 3.567Zm-121.531 92.819a1.207 1.207 0 1 0 0-2.414 1.207 1.207 0 0 0 0 2.414ZM32.784 150.608a.746.746 0 1 0 0-1.491.746.746 0 0 0 0 1.491ZM72.03 95.05a1.234 1.234 0 1 0 0-2.468 1.234 1.234 0 0 0 0 2.467Zm200.765 152.175a1.003 1.003 0 1 0 0-2.006 1.003 1.003 0 0 0 0 2.006Zm34.028 44.234a1.233 1.233 0 1 0 .002-2.466 1.233 1.233 0 0 0-.002 2.466ZM126.647 62.166a1.216 1.216 0 1 0 0-2.431 1.216 1.216 0 0 0 0 2.431ZM78.213 188.442a1.225 1.225 0 1 0 0-2.45 1.225 1.225 0 0 0 0 2.45Zm96.989 97.52a1.082 1.082 0 1 0 .001-2.165 1.082 1.082 0 0 0-.001 2.165Zm160.545-142.357a1.207 1.207 0 1 0 0-2.414 1.207 1.207 0 0 0 0 2.414ZM217.856 310.459a.923.923 0 1 0 0-1.845.923.923 0 0 0 0 1.845Zm-119.68-75.953a.808.808 0 1 0 0-1.616.808.808 0 0 0 0 1.616ZM260.624 60.25a.994.994 0 1 0 0-1.988.994.994 0 0 0 0 1.988ZM91.022 225.347a1.465 1.465 0 1 0 0-2.93 1.465 1.465 0 0 0 0 2.93Zm38.303 54.841a.914.914 0 1 0 0-1.829.914.914 0 0 0 0 1.829Zm-84.231-57.665a1.971 1.971 0 1 0-.002-3.942 1.971 1.971 0 0 0 .002 3.942ZM153.78 65.087a.95.95 0 1 0 0-1.899.95.95 0 0 0 0 1.899ZM53.949 223.934a1.012 1.012 0 1 0 0-2.024 1.012 1.012 0 0 0 0 2.024ZM183.448 47.603a.888.888 0 1 0 0-1.776.888.888 0 0 0 0 1.776Zm-17.865 52.522a1.109 1.109 0 1 0 0-2.218 1.109 1.109 0 0 0 0 2.218Zm-23.926 4.439a.905.905 0 1 0 0-1.81.905.905 0 0 0 0 1.81Zm110.131 210.901a1.03 1.03 0 1 0 0-2.06 1.03 1.03 0 0 0 0 2.06Zm53.448-126.206a.79.79 0 1 0 0-1.58.79.79 0 0 0 0 1.58ZM124.968 317.605a.976.976 0 1 0 .001-1.953.976.976 0 0 0-.001 1.953Zm42.027 4.048a.737.737 0 1 0 0-1.474.737.737 0 0 0 0 1.474Zm-98.908-80.465a1.03 1.03 0 1 0 0-2.06 1.03 1.03 0 0 0 0 2.06ZM256.023 66.374a.727.727 0 1 0 0-1.455.727.727 0 0 0 0 1.455Zm-8.817-14.99a1.083 1.083 0 1 0 0-2.166 1.083 1.083 0 0 0 0 2.166Zm-69.943 47.047a.772.772 0 1 0 0-1.545.772.772 0 0 0 0 1.545Zm131.806 70.594a.79.79 0 1 0 0-1.58.79.79 0 0 0 0 1.58Zm-52.125 84.227a.79.79 0 1 0 0-1.58.79.79 0 0 0 0 1.58ZM198.117 42.466a.968.968 0 1 0 .001-1.935.968.968 0 0 0-.001 1.935Zm-81.605 66.395a1.1 1.1 0 1 0-.001-2.201 1.1 1.1 0 0 0 .001 2.201Zm9.345-52.355a.71.71 0 1 0 0-1.42.71.71 0 0 0 0 1.42Zm-21.76 185.571a1.17 1.17 0 1 0 0-2.341 1.17 1.17 0 0 0 0 2.341Zm-3.429-68.065a1.207 1.207 0 1 0 0-2.414 1.207 1.207 0 0 0 0 2.414Zm68-88.332a1.109 1.109 0 1 0 0-2.218 1.109 1.109 0 0 0 0 2.218ZM97.68 150.973a.914.914 0 1 0 0-1.828.914.914 0 0 0 0 1.828Zm214.457 131.325a1.18 1.18 0 1 0 .001-2.36 1.18 1.18 0 0 0-.001 2.36ZM95.468 183.563a.95.95 0 1 0 0-1.899.95.95 0 0 0 0 1.899Zm212.088-36.47a1.074 1.074 0 1 0 0-2.148 1.074 1.074 0 0 0 0 2.148Zm5.078-6a.878.878 0 1 0 0-1.756.878.878 0 0 0 0 1.756Zm8.502-13.87a1.029 1.029 0 1 0 0-2.057 1.029 1.029 0 0 0 0 2.057Zm1.864 4.073a.942.942 0 1 0-.002-1.884.942.942 0 0 0 .002 1.884Zm-199.443-69.66a.844.844 0 1 0 0-1.688.844.844 0 0 0 0 1.688Zm171.782 67.965a1.073 1.073 0 1 0 0-2.147 1.073 1.073 0 0 0 0 2.147Zm-43.081-9.231a.94.94 0 1 0 0-1.88.94.94 0 0 0 0 1.88Zm-38.157 207.688a1.056 1.056 0 1 0-.001-2.113 1.056 1.056 0 0 0 .001 2.113Zm86.083-57.032a1.02 1.02 0 1 0-.001-2.041 1.02 1.02 0 0 0 .001 2.041Zm-71.448 45.893a1.18 1.18 0 1 0 0-2.36 1.18 1.18 0 0 0 0 2.36Zm60.949-188.62a1.101 1.101 0 1 0 0-2.202 1.101 1.101 0 0 0 0 2.202Zm-197.086-.287a.736.736 0 1 0 .001-1.472.736.736 0 0 0-.001 1.472Zm178.997 132.855a.914.914 0 1 0 0-1.827.914.914 0 0 0 0 1.827Zm-125.964 14.651a.808.808 0 1 0 0-1.617.808.808 0 0 0 0 1.617Zm35.359-224.793a.746.746 0 1 0 0-1.491.746.746 0 0 0 0 1.491Zm132.265 103.114a1.039 1.039 0 1 0 0-2.078 1.039 1.039 0 0 0 0 2.078ZM61.192 211.89a.896.896 0 1 0 0-1.792.896.896 0 0 0 0 1.792Zm73.253-144.256a.852.852 0 1 0 0-1.704.852.852 0 0 0 0 1.704Zm-21.601 213.751a.807.807 0 1 0 0-1.615.807.807 0 0 0 0 1.615Zm202.074-129.872a1.065 1.065 0 1 0 0-2.13 1.065 1.065 0 0 0 0 2.13ZM78.31 109.926a.736.736 0 1 0 .002-1.472.736.736 0 0 0-.001 1.472Zm94.619 188.173a1.18 1.18 0 1 0 0-2.36 1.18 1.18 0 0 0 0 2.36ZM68.22 233.6a.728.728 0 1 0 0-1.456.728.728 0 0 0 0 1.456Zm212.919 82.815a1.163 1.163 0 1 0 0-2.326 1.163 1.163 0 0 0 0 2.326ZM51.357 118.358a1.153 1.153 0 1 0 .001-2.307 1.153 1.153 0 0 0 0 2.307ZM154.38 89.173a1.588 1.588 0 1 0 0-3.176 1.588 1.588 0 0 0 0 3.176Zm-41.755-27.492a1.18 1.18 0 1 0 0-2.362 1.18 1.18 0 0 0 0 2.362Zm12.786 237.092a.862.862 0 1 0-.001-1.723.862.862 0 0 0 .001 1.723Zm147.545-62.094a1.091 1.091 0 1 0 .001-2.183 1.091 1.091 0 0 0-.001 2.183Zm45.644-72.242a.78.78 0 1 0 0-1.562.78.78 0 0 0 0 1.562ZM123.797 265.455a1.083 1.083 0 1 0 0-2.166 1.083 1.083 0 0 0 0 2.166Zm65.527 47.464a.755.755 0 1 0-.001-1.51.755.755 0 0 0 .001 1.51Zm124.325-119.877a.878.878 0 1 0 0-1.756.878.878 0 0 0 0 1.756ZM135.21 305.357a1.198 1.198 0 1 0 0-2.395 1.198 1.198 0 0 0 0 2.395Zm-48.236-42.298a1.11 1.11 0 1 0 0-2.22 1.11 1.11 0 0 0 0 2.22Zm108.002 61.396a.905.905 0 1 0 0-1.81.905.905 0 0 0 0 1.81ZM166.291 57.794a1.047 1.047 0 1 0 0-2.095 1.047 1.047 0 0 0 0 2.095Zm116.247 240.631a1.19 1.19 0 1 0 .001-2.379 1.19 1.19 0 0 0-.001 2.379Zm-75.455-229.07a1.056 1.056 0 1 0 0-2.113 1.056 1.056 0 0 0 0 2.112Zm95.833 112.291a1.003 1.003 0 1 0 0-2.005 1.003 1.003 0 0 0 0 2.005Zm-204.748-60.27a.754.754 0 1 0 0-1.509.754.754 0 0 0 0 1.509Zm180.343 25.557a.862.862 0 1 0-.001-1.723.862.862 0 0 0 .001 1.723Zm.38 62.014a.773.773 0 1 0-.001-1.545.773.773 0 0 0 .001 1.545ZM245.523 59.736a1.51 1.51 0 1 0 0-3.018 1.51 1.51 0 0 0 0 3.018Zm29.18 78.402a.853.853 0 1 0-.001-1.705.853.853 0 0 0 .001 1.705Zm-22.606-92.362a1.154 1.154 0 1 0 0-2.308 1.154 1.154 0 0 0 0 2.308ZM107.157 313.62a.728.728 0 1 0 0-1.456.728.728 0 0 0 0 1.456Zm-3.496-208.327a.914.914 0 1 0 0-1.827.914.914 0 0 0 0 1.827Zm21.13 153.629a1.208 1.208 0 1 0 0-2.416 1.208 1.208 0 0 0 0 2.416ZM159.138 82.99a1.136 1.136 0 1 0 0-2.272 1.136 1.136 0 0 0 0 2.273Zm8.733 10.915a.825.825 0 1 0 0-1.65.825.825 0 0 0 0 1.65Zm51.647 248.832a.86.86 0 1 0 .002-1.72.86.86 0 0 0-.002 1.72ZM82.295 230.999a1.039 1.039 0 1 0 0-2.077 1.039 1.039 0 0 0 0 2.077ZM41.43 207.756a1.1 1.1 0 1 0-.001-2.202 1.1 1.1 0 0 0 0 2.202ZM208.254 65.515a.861.861 0 1 0 0-1.723.861.861 0 0 0 0 1.723Zm-19.48 253.989a1.091 1.091 0 1 0 0-2.183 1.091 1.091 0 0 0 0 2.183Zm82.132-51.999a.755.755 0 1 0 0-1.51.755.755 0 0 0 0 1.51Z"/><path d="M126.008 266.189a1.163 1.163 0 1 0 0-2.327 1.163 1.163 0 0 0 0 2.327Zm35.511 14.884a1.118 1.118 0 1 0 0-2.236 1.118 1.118 0 0 0 0 2.236Zm91.739 15.629a1.172 1.172 0 1 0 .001-2.343 1.172 1.172 0 0 0-.001 2.343Zm48.771-.895a1.136 1.136 0 1 0 0-2.272 1.136 1.136 0 0 0 0 2.272Zm-57.793 3.762a1.154 1.154 0 1 0 0-2.308 1.154 1.154 0 0 0 0 2.308ZM171.307 87.62a1.5 1.5 0 1 0 0-3 1.5 1.5 0 0 0 0 3Zm-91.724 70.613a1.038 1.038 0 1 0 0-2.077 1.038 1.038 0 0 0 0 2.077Zm30.993-60.607a.754.754 0 1 0-.001-1.509.754.754 0 0 0 .001 1.509ZM54.23 177.633a.914.914 0 1 0 0-1.828.914.914 0 0 0 0 1.828Zm9.795 9.834a.728.728 0 1 0 0-1.456.728.728 0 0 0 0 1.456Zm43.796-53.711a1.118 1.118 0 1 0 0-2.236 1.118 1.118 0 0 0 0 2.236ZM290.88 282.177a1.163 1.163 0 1 0 0-2.327 1.163 1.163 0 0 0 0 2.327Zm-18.443-35.431a.897.897 0 1 0 0-1.793.897.897 0 0 0 0 1.793Zm-95.236 79.351a.861.861 0 1 0 0-1.722.861.861 0 0 0 0 1.722ZM115.009 76.694a1.02 1.02 0 1 0 0-2.042 1.02 1.02 0 0 0 0 2.042Zm131.773 17.71a.887.887 0 1 0 0-1.774.887.887 0 0 0 0 1.774Zm26.765-1.732a1.03 1.03 0 1 0 0-2.059 1.03 1.03 0 0 0 0 2.06Zm-81.79 227.223a.816.816 0 1 0 0-1.633.816.816 0 0 0 0 1.633Zm-41.239-205.762a1.03 1.03 0 1 0 0-2.059 1.03 1.03 0 0 0 0 2.059Zm-36.641 24.433a.976.976 0 1 0 0-1.952.976.976 0 0 0 0 1.952Zm-11.264 109.75a.976.976 0 1 0 0-1.952.976.976 0 0 0 0 1.952Zm144.29 33.674a1.215 1.215 0 1 0 .002-2.43 1.215 1.215 0 0 0-.002 2.43Zm-111.443-6.641a1.18 1.18 0 1 0 .001-2.36 1.18 1.18 0 0 0-.001 2.36Zm37.435 50.48a.967.967 0 1 0 0-1.934.967.967 0 0 0 0 1.934Zm-76.12-213.266a1.03 1.03 0 1 0 0-2.06 1.03 1.03 0 0 0 0 2.06Zm171.157 195.693a1.234 1.234 0 1 0 0-2.468 1.234 1.234 0 0 0 0 2.468ZM34.14 153.991a.763.763 0 1 0 .001-1.525.763.763 0 0 0 0 1.525ZM223.119 67.9a.852.852 0 1 0 0-1.705.852.852 0 0 0 0 1.704Zm113.211 64.638a1.154 1.154 0 1 0-.001-2.307 1.154 1.154 0 0 0 .001 2.307Z"/><path d="M274.177 92.237a.923.923 0 1 0 0-1.846.923.923 0 0 0 0 1.846ZM177.836 74.92a1.039 1.039 0 1 0 0-2.077 1.039 1.039 0 0 0 0 2.078Zm10.741 226.46a.967.967 0 1 0 .001-1.935.967.967 0 0 0-.001 1.935Zm38.952 26.553a1.19 1.19 0 1 0 0-2.378 1.19 1.19 0 0 0 0 2.378Zm-5.037-12.646a1.1 1.1 0 1 0-.002-2.202 1.1 1.1 0 0 0 .002 2.202ZM96.771 258.231a1.11 1.11 0 1 0 0-2.22 1.11 1.11 0 0 0 0 2.22Zm86.412 81.651a1.855 1.855 0 1 0-.002-3.71 1.855 1.855 0 0 0 .002 3.71ZM139.562 90.976a1.5 1.5 0 1 0 0-2.999 1.5 1.5 0 0 0 0 3Zm-20.7 187.685a1.226 1.226 0 1 0-.001-2.451 1.226 1.226 0 0 0 .001 2.451Zm84.652 13.296a.896.896 0 1 0 0-1.792.896.896 0 0 0 0 1.792Zm75.93-49.961a.879.879 0 1 0-.001-1.757.879.879 0 0 0 .001 1.757Zm-34.019 59.818a1.065 1.065 0 1 0 0-2.13 1.065 1.065 0 0 0 0 2.13Zm35.036-163.744a.763.763 0 1 0 0-1.526.763.763 0 0 0 0 1.526ZM59.38 198.056a1.198 1.198 0 1 0 0-2.396 1.198 1.198 0 0 0 0 2.396Zm133.269 110.042a.8.8 0 1 0 0-1.599.8.8 0 0 0 0 1.599Zm51.463 13.041a.923.923 0 1 0 0-1.847.923.923 0 0 0 0 1.847Zm-54.169-32.753a.994.994 0 1 0 0-1.988.994.994 0 0 0 0 1.988Zm-95.576-98.869a.87.87 0 1 0-.001-1.74.87.87 0 0 0 0 1.74Zm97.665 108.969a.79.79 0 1 0-.001-1.58.79.79 0 0 0 .001 1.58ZM49.555 149.51a.808.808 0 1 0 0-1.616.808.808 0 0 0 0 1.616Zm228.733 122.92a1.207 1.207 0 1 0 0-2.414 1.207 1.207 0 0 0 0 2.414Zm24.685-101.934a1.11 1.11 0 1 0-.001-2.22 1.11 1.11 0 0 0 .001 2.22Zm16.552 10.938a1.242 1.242 0 1 0 0-2.484 1.242 1.242 0 0 0 0 2.484Zm-3.919-79.756a.906.906 0 1 0-.001-1.811.906.906 0 0 0 .001 1.811ZM97.821 140.502a.888.888 0 1 0 0-1.776.888.888 0 0 0 0 1.776Zm48.602 136.328a.985.985 0 1 0 0-1.97.985.985 0 0 0 0 1.97Zm-27.97-181.993a.755.755 0 1 0 0-1.51.755.755 0 0 0 0 1.51ZM59.71 259.188a1.127 1.127 0 1 0 0-2.255 1.127 1.127 0 0 0 0 2.255Zm61.255-174.911a.88.88 0 1 0 0-1.758.88.88 0 0 0 0 1.758ZM58.361 241.953a.994.994 0 1 0 0-1.988.994.994 0 0 0 0 1.988Zm46.106-41.672a1.206 1.206 0 1 0 .001-2.413 1.206 1.206 0 0 0-.001 2.413Zm167.947-87.205a.773.773 0 1 0-.001-1.545.773.773 0 0 0 .001 1.545ZM116.28 273.345a.985.985 0 1 0 0-1.97.985.985 0 0 0 0 1.97ZM258.334 48.01a.808.808 0 1 0 0-1.616.808.808 0 0 0 0 1.616Zm-78.87 38.085a.87.87 0 1 0 0-1.74.87.87 0 0 0 0 1.74Zm32.189 211.693a.746.746 0 1 0 0-1.492.746.746 0 0 0 0 1.492Zm99.56-124.725a1.11 1.11 0 1 0 0-2.218 1.11 1.11 0 0 0 0 2.218ZM100.411 81.931a1.1 1.1 0 1 0-.001-2.2 1.1 1.1 0 0 0 .001 2.2Zm145.35 228.611a1.235 1.235 0 1 0-.001-2.47 1.235 1.235 0 0 0 .001 2.47Zm3.631-217.24a1.065 1.065 0 1 0 0-2.13 1.065 1.065 0 0 0 0 2.13Zm74.796 54.236a.746.746 0 1 0 0-1.492.746.746 0 0 0 0 1.492ZM81.296 287.732a.887.887 0 1 0 0-1.774.887.887 0 0 0 0 1.774Zm1.115-126.838a.976.976 0 1 0 0-1.952.976.976 0 0 0 0 1.952Zm3.703-10.117a1.482 1.482 0 1 0 0-2.965 1.482 1.482 0 0 0 0 2.965ZM194.65 28.121a.914.914 0 1 0 0-1.828.914.914 0 0 0 0 1.828Zm47.746 17.751a.737.737 0 1 0 0-1.474.737.737 0 0 0 0 1.474ZM83.533 213.02a.932.932 0 1 0 0-1.864.932.932 0 0 0 0 1.864Zm75.249 72.385a.958.958 0 1 0 0-1.916.958.958 0 0 0 0 1.916Zm80.404-263.079a.79.79 0 1 0 0-1.58.79.79 0 0 0 0 1.58Zm-121.514 92.656a1.1 1.1 0 1 0 .002-2.2 1.1 1.1 0 0 0-.002 2.2ZM40.239 217.411a1.065 1.065 0 1 0 0-2.13 1.065 1.065 0 0 0 0 2.13Zm260.833-37.479a.843.843 0 1 0 0-1.686.843.843 0 0 0 0 1.686Zm-10.97 32.493a.977.977 0 1 0 0-1.954.977.977 0 0 0 0 1.954Zm-74.224 124.857a.72.72 0 1 0 0-1.438.72.72 0 0 0 0 1.438ZM101.912 73.51a.71.71 0 1 0 0-1.42.71.71 0 0 0 0 1.42Zm235.106 52.221a.753.753 0 1 0 .001-1.507.753.753 0 0 0-.001 1.507ZM122.724 245.732a1.198 1.198 0 1 0 0-2.395 1.198 1.198 0 0 0 0 2.395ZM233.626 70.82a.976.976 0 1 0 0-1.953.976.976 0 0 0 0 1.953Zm63.395 163.658a.887.887 0 1 0 0-1.774.887.887 0 0 0 0 1.774ZM161.4 81.358a2.015 2.015 0 1 0 0-4.03 2.015 2.015 0 0 0 0 4.03ZM40.529 206.133a1.5 1.5 0 1 0 0-3 1.5 1.5 0 0 0 0 3Zm73.995 28.602a.718.718 0 1 0 0-1.437.718.718 0 0 0 0 1.437ZM219.107 85.146a1.18 1.18 0 1 0 0-2.36 1.18 1.18 0 0 0 0 2.36Zm24.363 16.641a.985.985 0 1 0 .002-1.97.985.985 0 0 0-.002 1.97Zm-61.902 219.332a1.083 1.083 0 1 0 0-2.166 1.083 1.083 0 0 0 0 2.166ZM248.869 75.56a1.145 1.145 0 1 0 0-2.291 1.145 1.145 0 0 0 0 2.29Zm67.697 108.901a1.206 1.206 0 1 0 .001-2.413 1.206 1.206 0 0 0-.001 2.413ZM188.23 68.557a.906.906 0 1 0 0-1.812.906.906 0 0 0 0 1.812Zm56.552 250.159a1.244 1.244 0 1 0-.001-2.487 1.244 1.244 0 0 0 .001 2.487ZM292.531 65.38a1.145 1.145 0 1 0 0-2.29 1.145 1.145 0 0 0 0 2.29ZM71.574 119.393a.728.728 0 1 0 0-1.456.728.728 0 0 0 0 1.456Zm105.253 179.655a.95.95 0 1 0 0-1.899.95.95 0 0 0 0 1.899Zm154.321-103.896a.994.994 0 1 0 0-1.988.994.994 0 0 0 0 1.988Zm-193.89-69.569a1.065 1.065 0 1 0 0-2.13 1.065 1.065 0 0 0 0 2.13Zm161.055 74.468a.897.897 0 1 0-.001-1.793.897.897 0 0 0 .001 1.793ZM68.605 134.058a.861.861 0 1 0 0-1.723.861.861 0 0 0 0 1.723Zm217.458 41.206a1.216 1.216 0 1 0 0-2.432 1.216 1.216 0 0 0 0 2.432ZM78.729 219.63a1.065 1.065 0 1 0 0-2.13 1.065 1.065 0 0 0 0 2.13Zm58.612-112.662a1.873 1.873 0 1 0 0-3.746 1.873 1.873 0 0 0 0 3.746Zm100.343-18.742a1.074 1.074 0 1 0 0-2.148 1.074 1.074 0 0 0 0 2.148Zm-51.85-10.411a1.153 1.153 0 1 0 .001-2.307 1.153 1.153 0 0 0-.001 2.307Zm44.352 206.172a1.118 1.118 0 1 0 0-2.236 1.118 1.118 0 0 0 0 2.236Zm-176.43-63.76a1.11 1.11 0 1 0 0-2.22 1.11 1.11 0 0 0 0 2.22ZM196.23 63.11a.798.798 0 1 0 .001-1.598.798.798 0 0 0-.001 1.597Z"/><path d="M246.033 301.343a.976.976 0 1 0 .001-1.953.976.976 0 0 0-.001 1.953Zm-71.445-7.31a1.02 1.02 0 1 0 .002-2.04 1.02 1.02 0 0 0-.002 2.04Zm10.12-4.305a.87.87 0 1 0 0-1.74.87.87 0 0 0 0 1.74Zm-83.293-.516a1.145 1.145 0 1 0 0-2.29 1.145 1.145 0 0 0 0 2.29Zm14.85-172.81a1.172 1.172 0 1 0-.001-2.343 1.172 1.172 0 0 0 .001 2.343Zm205.123 14.194a.94.94 0 1 0 0-1.88.94.94 0 0 0 0 1.88Zm-25.091-43.002a1.012 1.012 0 1 0 0-2.024 1.012 1.012 0 0 0 0 2.024ZM66.285 214.041a.79.79 0 1 0 0-1.58.79.79 0 0 0 0 1.58Zm53.643-90.787a.833.833 0 1 0 .001-1.667.833.833 0 0 0-.001 1.667Zm99.064-29.632a.737.737 0 1 0 0-1.474.737.737 0 0 0 0 1.474ZM60.854 116.695a.976.976 0 1 0 0-1.953.976.976 0 0 0 0 1.953Zm47.945-28.968a.719.719 0 1 0 0-1.438.719.719 0 0 0 0 1.438Zm122.247 246.12a.878.878 0 1 0 0-1.756.878.878 0 0 0 0 1.756Zm100.36-194.634a1.119 1.119 0 1 0 0-2.238 1.119 1.119 0 0 0 0 2.238Zm-3.55 34.862a.737.737 0 1 0 0-1.474.737.737 0 0 0 0 1.474ZM151.364 41.308a.994.994 0 1 0 0-1.988.994.994 0 0 0 0 1.988ZM294.38 75.765a.896.896 0 1 0 0-1.792.896.896 0 0 0 0 1.792ZM50.302 234.233a.746.746 0 1 0 0-1.491.746.746 0 0 0 0 1.491Zm228.618 75.366a.985.985 0 1 0 0-1.97.985.985 0 0 0 0 1.97Zm-20.307 5.538a1.437 1.437 0 1 0 0-2.873 1.437 1.437 0 0 0 0 2.873ZM65.17 279.805a.897.897 0 1 0 0-1.794.897.897 0 0 0 0 1.794Zm65.115-14.458a1.172 1.172 0 1 0-.001-2.343 1.172 1.172 0 0 0 .001 2.343Zm-28.114 46.249a1.198 1.198 0 1 0 0-2.397 1.198 1.198 0 0 0 0 2.397Zm64.413-248.211a1.1 1.1 0 1 0 0-2.2 1.1 1.1 0 0 0 0 2.2ZM286.15 279.983a.746.746 0 1 0 0-1.492.746.746 0 0 0 0 1.492ZM224.248 71.895a.95.95 0 1 0 0-1.899.95.95 0 0 0 0 1.9Zm77.498 125.469a1.127 1.127 0 1 0 0-2.254 1.127 1.127 0 0 0 0 2.254ZM217.255 44.248a1.198 1.198 0 1 0 0-2.396 1.198 1.198 0 0 0 0 2.396ZM153.9 45.837a1.437 1.437 0 1 0 0-2.875 1.437 1.437 0 0 0 0 2.874Zm32.255 236.871a1.145 1.145 0 1 0 0-2.29 1.145 1.145 0 0 0 0 2.29ZM333.21 126.395a1.242 1.242 0 1 0 .002-2.484 1.242 1.242 0 0 0-.002 2.484ZM209.434 54.26a1.935 1.935 0 1 0 0-3.87 1.935 1.935 0 0 0 0 3.87Zm87.721 92.265a1.473 1.473 0 1 0 0-2.946 1.473 1.473 0 0 0 0 2.946Zm23.132 104.712a.728.728 0 1 0 0-1.456.728.728 0 0 0 0 1.456Zm-65.447 29.366a1.571 1.571 0 1 0 0-3.142 1.571 1.571 0 0 0 0 3.142Zm-2.202 7.143a.914.914 0 1 0 0-1.827.914.914 0 0 0 0 1.827ZM109.382 101.513a.755.755 0 1 0-.002-1.51.755.755 0 0 0 .002 1.51Zm101.295-12.631a.746.746 0 1 0 0-1.492.746.746 0 0 0 0 1.492ZM74.902 125.047a.932.932 0 1 0 0-1.864.932.932 0 0 0 0 1.864Zm197.244-5.617a.834.834 0 1 0 .001-1.669.834.834 0 0 0-.001 1.669ZM163.549 315.785a1.012 1.012 0 1 0 0-2.023 1.012 1.012 0 0 0 0 2.023ZM294.768 63.252a.905.905 0 1 0 0-1.81.905.905 0 0 0 0 1.81Zm-176.142 208.59a1.233 1.233 0 1 0 0-2.466 1.233 1.233 0 0 0 0 2.466Zm67.282 69.435a1.172 1.172 0 1 0 0-2.345 1.172 1.172 0 0 0 0 2.345ZM195.785 82.1a.71.71 0 1 0 0-1.42.71.71 0 0 0 0 1.42ZM126.07 257.795a.923.923 0 1 0 0-1.845.923.923 0 0 0 0 1.845Zm196.725-92.773a1.216 1.216 0 1 0 0-2.432 1.216 1.216 0 0 0 0 2.432Zm-209.436 70.273a2.015 2.015 0 1 0 0-4.03 2.015 2.015 0 0 0 0 4.03Zm54.612-132.364a.87.87 0 1 0 0-1.74.87.87 0 0 0 0 1.74Zm-101.42 89.585a1.145 1.145 0 1 0 .001-2.29 1.145 1.145 0 0 0 0 2.29Zm42.166-43.621a.737.737 0 1 0-.001-1.473.737.737 0 0 0 .001 1.473Zm114.37 163.108a1.172 1.172 0 1 0 .001-2.343 1.172 1.172 0 0 0-.001 2.343ZM301.159 80.84a1.047 1.047 0 1 0 0-2.094 1.047 1.047 0 0 0 0 2.095Zm-97.352-33.433a.755.755 0 1 0 0-1.51.755.755 0 0 0 0 1.51Zm88.041 171.664a1.065 1.065 0 1 0 0-2.13 1.065 1.065 0 0 0 0 2.13Zm-153.994 85.185a1.199 1.199 0 1 0 0-2.398 1.199 1.199 0 0 0 0 2.398Zm129.013-23.343a.86.86 0 1 0 .001-1.72.86.86 0 0 0-.001 1.72ZM68.657 132.174a1.136 1.136 0 1 0 0-2.271 1.136 1.136 0 0 0 0 2.271ZM192.668 36.83a.807.807 0 1 0 .001-1.615.807.807 0 0 0-.001 1.615Zm-41.454 63.679a1.162 1.162 0 1 0 .001-2.325 1.162 1.162 0 0 0-.001 2.325Zm149.344 102.027a.737.737 0 1 0 0-1.474.737.737 0 0 0 0 1.474ZM174.909 298.09a1.616 1.616 0 1 0 0-3.232 1.616 1.616 0 0 0 0 3.232Zm119.969-112.416a.825.825 0 1 0 0-1.65.825.825 0 0 0 0 1.65ZM74.504 147.147a.745.745 0 1 0 .001-1.49.745.745 0 0 0-.001 1.49Zm38.44-77.346a.718.718 0 1 0 .001-1.437.718.718 0 0 0-.001 1.437Zm78.626 229.771a1.198 1.198 0 1 0 0-2.396 1.198 1.198 0 0 0 0 2.396ZM65 96.345a.888.888 0 1 0 0-1.775.888.888 0 0 0 0 1.775Zm280.01 58.674a.896.896 0 1 0 0-1.792.896.896 0 0 0 0 1.792ZM228.185 284.554a1.695 1.695 0 1 0 .001-3.39 1.695 1.695 0 0 0-.001 3.39Zm64.73-39.345a1.083 1.083 0 1 0 0-2.166 1.083 1.083 0 0 0 0 2.166Zm-65.588 88.388a1.172 1.172 0 1 0-.001-2.343 1.172 1.172 0 0 0 .001 2.343Zm21.185-12.45a.71.71 0 1 0 0-1.42.71.71 0 0 0 0 1.42Zm-39.459 10.4a1.029 1.029 0 1 0 0-2.057 1.029 1.029 0 0 0 0 2.057Zm109.362-105.596a1.198 1.198 0 1 0 0-2.395 1.198 1.198 0 0 0 0 2.395Zm-12.392 7.073a1.225 1.225 0 1 0-.002-2.45 1.225 1.225 0 0 0 .002 2.45ZM189.857 96.202a.763.763 0 1 0 0-1.525.763.763 0 0 0 0 1.525ZM56.992 199.563a.719.719 0 1 0 0-1.438.719.719 0 0 0 0 1.438Zm21.473-12.307a1.136 1.136 0 1 0 0-2.271 1.136 1.136 0 0 0 0 2.271Zm-18.669 7.162a1.207 1.207 0 1 0 0-2.414 1.207 1.207 0 0 0 0 2.414Zm48 94.598a.932.932 0 1 0 0-1.863.932.932 0 0 0 0 1.863Zm101.849-2.588a1.003 1.003 0 1 0 0-2.006 1.003 1.003 0 0 0 0 2.006Zm78.736-162.268a1.988 1.988 0 1 0 0-3.976 1.988 1.988 0 0 0 0 3.976Zm14.545 113.266a.833.833 0 1 0 .001-1.667.833.833 0 0 0-.001 1.667Zm-5.699-138.24a1.216 1.216 0 1 0 0-2.433 1.216 1.216 0 0 0 0 2.433Zm12.336 25.425a.887.887 0 1 0 0-1.774.887.887 0 0 0 0 1.774ZM135.418 284.733a1.02 1.02 0 1 0-.001-2.041 1.02 1.02 0 0 0 .001 2.041ZM55.176 142.93a1.144 1.144 0 1 0 0-2.289 1.144 1.144 0 0 0 0 2.289Zm172.177 148.011a.896.896 0 1 0 0-1.792.896.896 0 0 0 0 1.792ZM191.096 86.866a.958.958 0 1 0 0-1.916.958.958 0 0 0 0 1.916Zm119.42 198.088a1.127 1.127 0 1 0 0-2.254 1.127 1.127 0 0 0 0 2.254Zm-50.531 9.3a.897.897 0 1 0-.001-1.793.897.897 0 0 0 .001 1.793ZM70.02 158.456a.843.843 0 1 0 0-1.687.843.843 0 0 0 0 1.687Zm208.935-27.71a.78.78 0 1 0 0-1.562.78.78 0 0 0 0 1.562ZM110.024 56.965a.817.817 0 1 0 0-1.634.817.817 0 0 0 0 1.634Zm98.684 245.304a.896.896 0 1 0 0-1.792.896.896 0 0 0 0 1.792Zm115.569-24.293a.879.879 0 1 0 0-1.758.879.879 0 0 0 0 1.758Z"/><path d="M325.282 278.563a.834.834 0 1 0 0-1.668.834.834 0 0 0 0 1.668ZM253.924 85.074a.817.817 0 1 0 0-1.633.817.817 0 0 0 0 1.633Zm22.731 91.849a.985.985 0 1 0 0-1.97.985.985 0 0 0 0 1.97Zm-33.869-74.017a.78.78 0 1 0 0-1.562.78.78 0 0 0 0 1.562Zm-22.789 189.323a1.038 1.038 0 1 0 0-2.077 1.038 1.038 0 0 0 0 2.077ZM196.424 67.944a1.02 1.02 0 1 0 0-2.042 1.02 1.02 0 0 0 0 2.042Zm65.499 241.262a1.17 1.17 0 1 0 0-2.341 1.17 1.17 0 0 0 0 2.341ZM65.255 179.665a1.065 1.065 0 1 0 0-2.13 1.065 1.065 0 0 0 0 2.13Zm248.365-.141a.95.95 0 1 0 0-1.898.95.95 0 0 0 0 1.898Zm-39.493 111.581a1.074 1.074 0 1 0 0-2.148 1.074 1.074 0 0 0 0 2.148ZM200.384 30.867a1.482 1.482 0 1 0 0-2.964 1.482 1.482 0 0 0 0 2.964ZM59.957 227.166a1.1 1.1 0 1 0 0-2.202 1.1 1.1 0 0 0 0 2.202Zm234.548-64.84a.888.888 0 1 0-.001-1.775.888.888 0 0 0 .001 1.775Zm17.627 34.259a1.136 1.136 0 1 0 0-2.272 1.136 1.136 0 0 0 0 2.272Zm22.196-34.316a1.908 1.908 0 1 0 0-3.817 1.908 1.908 0 0 0 0 3.817Zm-65.153 138.519a.825.825 0 1 0 0-1.65.825.825 0 0 0 0 1.65Zm-39.064-190.737a.736.736 0 1 0 .002-1.472.736.736 0 0 0-.002 1.472Zm27.559-60.556a.959.959 0 1 0 0-1.917.959.959 0 0 0 0 1.917ZM56.505 177.908a.773.773 0 1 0-.001-1.545.773.773 0 0 0 0 1.545Zm67.87-122.112a.745.745 0 1 0 0-1.49.745.745 0 0 0 0 1.49Zm-37.252 72.013a.834.834 0 1 0 0-1.668.834.834 0 0 0 0 1.668Zm193.259 87.705a1.003 1.003 0 1 0 0-2.006 1.003 1.003 0 0 0 0 2.006Zm-128.193 92.711a.842.842 0 1 0 .001-1.685.842.842 0 0 0-.001 1.685Z"/><path d="M273.014 289.411a.932.932 0 1 0 0-1.865.932.932 0 0 0 0 1.865Zm-124.552 11.536a1.215 1.215 0 1 0 0-2.43 1.215 1.215 0 0 0 0 2.43Zm49.779-12.267a1.225 1.225 0 1 0 0-2.45 1.225 1.225 0 0 0 0 2.45Zm92.714-216.77a1.11 1.11 0 1 0 0-2.22 1.11 1.11 0 0 0 0 2.22ZM129.444 305.579a.95.95 0 1 0 0-1.899.95.95 0 0 0 0 1.899Zm62.273-229.157a.798.798 0 1 0 0-1.597.798.798 0 0 0 0 1.597Zm-70.584 228.587a.79.79 0 1 0 0-1.58.79.79 0 0 0 0 1.58Zm225.488-125.558a1.118 1.118 0 1 0 0-2.236 1.118 1.118 0 0 0 0 2.236ZM98.802 204.392a1.456 1.456 0 1 0 0-2.912 1.456 1.456 0 0 0 0 2.912Zm62.18-107.619a.8.8 0 1 0 0-1.598.8.8 0 0 0 0 1.598Zm-6.998 176.031a1.154 1.154 0 1 0 0-2.309 1.154 1.154 0 0 0 0 2.309Zm46.764 20.101a1.153 1.153 0 1 0 0-2.306 1.153 1.153 0 0 0 0 2.306ZM158.834 43.813a.755.755 0 1 0 0-1.509.755.755 0 0 0 0 1.51Zm52.117 230.168a1.047 1.047 0 1 0 0-2.095 1.047 1.047 0 0 0 0 2.095ZM108.708 100.188a.835.835 0 1 0 0-1.67.835.835 0 0 0 0 1.67Zm224.253 9.897a1.039 1.039 0 1 0 0-2.078 1.039 1.039 0 0 0 0 2.078Zm-85.788 155.99a1.145 1.145 0 1 0 0-2.29 1.145 1.145 0 0 0 0 2.29Zm-57.595 46.383a.853.853 0 1 0-.001-1.705.853.853 0 0 0 .001 1.705Zm-5.091-32.202a1.101 1.101 0 1 0 0-2.202 1.101 1.101 0 0 0 0 2.202ZM178.31 72.942a.932.932 0 1 0 0-1.864.932.932 0 0 0 0 1.864Zm-47.635 48.086a.915.915 0 1 0-.001-1.83.915.915 0 0 0 .001 1.83Zm190.523 77.605a.898.898 0 1 0-.001-1.795.898.898 0 0 0 .001 1.795Zm-285.495-7.758a.914.914 0 1 0 0-1.828.914.914 0 0 0 0 1.828ZM293.472 86.238a1.172 1.172 0 1 0 0-2.344 1.172 1.172 0 0 0 0 2.344Zm-79.885 216.988a1.057 1.057 0 1 0 0-2.113 1.057 1.057 0 0 0 0 2.113ZM56.055 221.06a1.065 1.065 0 1 0 0-2.13 1.065 1.065 0 0 0 0 2.13Zm54.004 101.817a.79.79 0 1 0 0-1.58.79.79 0 0 0 0 1.58Zm154.924-69.086a.923.923 0 1 0 0-1.847.923.923 0 0 0 0 1.847ZM185.268 69.205a.71.71 0 1 0 0-1.42.71.71 0 0 0 0 1.42Zm23.397 29.43a.825.825 0 1 0 0-1.65.825.825 0 0 0 0 1.65ZM83.954 205.042a.746.746 0 1 0 0-1.492.746.746 0 0 0 0 1.492Zm257.541 20.857a1.047 1.047 0 1 0 0-2.095 1.047 1.047 0 0 0 0 2.095Zm-236.307-1.706a.985.985 0 1 0 0-1.97.985.985 0 0 0 0 1.97Zm-34.162-83.285a1.1 1.1 0 1 0 0-2.201 1.1 1.1 0 0 0 0 2.201Zm19.958 161.209a.88.88 0 1 0-.001-1.758.88.88 0 0 0 0 1.758ZM38.699 176.462a.87.87 0 1 0 0-1.74.87.87 0 0 0 0 1.74Zm156.615-84.626a1.11 1.11 0 1 0-.001-2.219 1.11 1.11 0 0 0 .001 2.219ZM158.635 52.84a.88.88 0 1 0 0-1.759.88.88 0 0 0 0 1.758Zm104.572 53.43a1.145 1.145 0 1 0 0-2.29 1.145 1.145 0 0 0 0 2.29ZM62.564 236.272a.745.745 0 1 0 .002-1.49.745.745 0 0 0-.002 1.49Zm263.624-54.43a1.215 1.215 0 1 0 0-2.43 1.215 1.215 0 0 0 0 2.43Zm-76.923 89.051a.906.906 0 1 0-.001-1.811.906.906 0 0 0 .001 1.811ZM90.384 229.898a1.563 1.563 0 1 0-.001-3.125 1.563 1.563 0 0 0 0 3.125Zm140.819 55.959a1.003 1.003 0 1 0 0-2.006 1.003 1.003 0 0 0 0 2.006ZM96.282 220.376a1.145 1.145 0 1 0 0-2.29 1.145 1.145 0 0 0 0 2.29Zm106.284 101.818a1.153 1.153 0 1 0 .002-2.306 1.153 1.153 0 0 0-.002 2.306Zm-33.664 14.529a.915.915 0 1 0 0-1.83.915.915 0 0 0 0 1.83ZM100.83 145.327a.924.924 0 1 0-.001-1.847.924.924 0 0 0 .001 1.847Zm182.835 165.664a1.039 1.039 0 1 0-.001-2.077 1.039 1.039 0 0 0 .001 2.077ZM98.46 96.31a.985.985 0 1 0 0-1.97.985.985 0 0 0 0 1.97Zm42.102-12.717a.844.844 0 1 0 0-1.688.844.844 0 0 0 0 1.688Zm150.383 124.768a.888.888 0 1 0 0-1.776.888.888 0 0 0 0 1.776ZM96.666 291.815a1.216 1.216 0 1 0-.001-2.433 1.216 1.216 0 0 0 0 2.433Zm73.076-181.59a.71.71 0 1 0 0-1.42.71.71 0 0 0 0 1.42Zm128.001 166.198a.985.985 0 1 0 .002-1.97.985.985 0 0 0-.002 1.97Zm3.658-14.086a1.081 1.081 0 1 0 0-2.165 1.083 1.083 0 0 0 0 2.165ZM276.531 88.97a.967.967 0 1 0 0-1.935.967.967 0 0 0 0 1.935Zm-105.436-.638a.914.914 0 1 0 0-1.828.914.914 0 0 0 0 1.828ZM60.843 223.048a1.082 1.082 0 1 0 .001-2.164 1.082 1.082 0 0 0-.001 2.164Zm172.268-149.74a.764.764 0 1 0 0-1.527.764.764 0 0 0 0 1.527Zm-97.404 194.117a.96.96 0 1 0 0-1.918.96.96 0 0 0 0 1.918Zm-67.913-72.672a.78.78 0 1 0 .001-1.561.78.78 0 0 0 0 1.561Z"/><path d="M62.39 224.23a.861.861 0 1 0-.001-1.723.861.861 0 0 0 0 1.723Zm67.595 80.194a1.038 1.038 0 1 0 0-2.075 1.038 1.038 0 0 0 0 2.075Zm-23.931-36.335a.959.959 0 1 0 0-1.917.959.959 0 0 0 0 1.917Zm-56.056-85.263a1.1 1.1 0 1 0 0-2.201 1.1 1.1 0 0 0 0 2.201Zm.134 44.962a1.039 1.039 0 1 0 0-2.077 1.039 1.039 0 0 0 0 2.077Z"/><path d="M130.756 305.047a1.208 1.208 0 1 0-.002-2.416 1.208 1.208 0 0 0 .002 2.416Zm-45.32-74.729a.905.905 0 1 0 .001-1.81.905.905 0 0 0 0 1.81ZM248.193 96.55a1.171 1.171 0 1 0 0-2.342 1.171 1.171 0 0 0 0 2.342ZM90.451 116.361a.887.887 0 1 0 0-1.775.887.887 0 0 0 0 1.775Zm106.106-24.613a.79.79 0 1 0 0-1.579.79.79 0 0 0 0 1.579ZM67.03 170.994a.888.888 0 1 0 0-1.776.888.888 0 0 0 0 1.776Zm65.918-123.267a1.207 1.207 0 1 0 0-2.414 1.207 1.207 0 0 0 0 2.414Zm29.05 243.818a1.101 1.101 0 1 0 0-2.202 1.101 1.101 0 0 0 0 2.202ZM94.359 116.199a.88.88 0 1 0-.001-1.758.88.88 0 0 0 0 1.758Zm-2.965 37.48a.976.976 0 1 0 0-1.952.976.976 0 0 0 0 1.952Zm3.789-58.399a1.19 1.19 0 1 0 0-2.378 1.19 1.19 0 0 0 0 2.379Zm11.263 151.012a.976.976 0 1 0 0-1.952.976.976 0 0 0 0 1.952Zm-42.237 15.424a1.163 1.163 0 1 0 0-2.326 1.163 1.163 0 0 0 0 2.326ZM228.15 43.584a.727.727 0 1 0 0-1.454.727.727 0 0 0 0 1.454Zm-10.915 36.007a1.083 1.083 0 1 0 0-2.166 1.083 1.083 0 0 0 0 2.166Zm7.267-11.733a1.136 1.136 0 1 0 0-2.273 1.136 1.136 0 0 0 0 2.273ZM155.909 35.22a1.065 1.065 0 1 0 0-2.13 1.065 1.065 0 0 0 0 2.13Zm3.78 236.294a1.118 1.118 0 1 0 0-2.236 1.118 1.118 0 0 0 0 2.236Zm155.096-169.471a.994.994 0 1 0 0-1.988.994.994 0 0 0 0 1.988Zm-29.984 76.47a1.048 1.048 0 1 0-.001-2.095 1.048 1.048 0 0 0 .001 2.095ZM64.149 273.069a.746.746 0 1 0 0-1.491.746.746 0 0 0 0 1.491Zm225.643 17.919a1.793 1.793 0 1 0 0-3.587 1.793 1.793 0 0 0 0 3.587ZM149.934 80.814a1.997 1.997 0 1 0 0-3.994 1.997 1.997 0 0 0 0 3.994ZM95.388 196.048a1.082 1.082 0 1 0 .002-2.164 1.082 1.082 0 0 0-.002 2.164Zm96.136 110.763a.94.94 0 1 0 0-1.881.94.94 0 0 0 0 1.881ZM115.457 87.33a1.473 1.473 0 1 0 0-2.948 1.473 1.473 0 0 0 0 2.947Zm104.875-11.424a1.189 1.189 0 1 0 0-2.378 1.189 1.189 0 0 0 0 2.378Zm55.062 76.946a.852.852 0 1 0 .001-1.705.852.852 0 0 0-.001 1.705ZM171.8 280.276a.86.86 0 1 0 .002-1.72.86.86 0 0 0-.002 1.72ZM63.986 204.454a.772.772 0 1 0 0-1.543.772.772 0 0 0 0 1.543Zm191.68-111.109a.79.79 0 1 0 .001-1.579.79.79 0 0 0-.001 1.58Zm18.042 132.26a1.207 1.207 0 1 0 0-2.414 1.207 1.207 0 0 0 0 2.414Zm-197.047 3.551a1.012 1.012 0 1 0 0-2.023 1.012 1.012 0 0 0 0 2.023ZM90.638 241.9a.985.985 0 1 0 0-1.97.985.985 0 0 0 0 1.97Zm159.137 25.453a.985.985 0 1 0 0-1.97.985.985 0 0 0 0 1.97Zm-1.21-7.348a.853.853 0 1 0-.001-1.705.853.853 0 0 0 .001 1.705Zm30.111 13.4a.826.826 0 1 0 0-1.652.826.826 0 0 0 0 1.652Zm-94.072 29.92a1.145 1.145 0 1 0 0-2.29 1.145 1.145 0 0 0 0 2.29Zm109.174-40.763a.959.959 0 1 0-.002-1.918.959.959 0 0 0 .002 1.918Zm18.07-61.044a.94.94 0 1 0 0-1.88.94.94 0 0 0 0 1.88Zm-205.453-38.787a.915.915 0 1 0-.002-1.83.915.915 0 0 0 .002 1.83Zm98.459-132.256a.807.807 0 1 0 0-1.615.807.807 0 0 0 0 1.615ZM91.136 187.235a1.455 1.455 0 1 0 .001-2.91 1.455 1.455 0 0 0 0 2.91Zm164.513 69.754a.834.834 0 1 0 0-1.668.834.834 0 0 0 0 1.668Zm24.183-132.891a.932.932 0 1 0 0-1.865.932.932 0 0 0 0 1.865ZM99.792 260.492a1.206 1.206 0 1 0 .001-2.413 1.206 1.206 0 0 0-.001 2.413Zm95.664-174.76a.905.905 0 1 0 0-1.81.905.905 0 0 0 0 1.81Zm61.187 166.755a.745.745 0 1 0 0-1.49.745.745 0 0 0 0 1.49Zm29.516-178.08a.95.95 0 1 0 0-1.9.95.95 0 0 0 0 1.9ZM48.454 170.855a.878.878 0 1 0 0-1.757.878.878 0 0 0 0 1.757ZM188.858 288.82a.915.915 0 1 0 0-1.83.915.915 0 0 0 0 1.83Zm120.482-64.617a.8.8 0 1 0 0-1.599.8.8 0 0 0 0 1.599Zm-229.166-76.48a.932.932 0 1 0 0-1.864.932.932 0 0 0 0 1.864Zm146.763 136.814a1.083 1.083 0 1 0 0-2.166 1.083 1.083 0 0 0 0 2.166ZM156.288 60.702a1.154 1.154 0 1 0 0-2.308 1.154 1.154 0 0 0 0 2.308Zm158.734 215.447a1.048 1.048 0 1 0 .001-2.095 1.048 1.048 0 0 0-.001 2.095Zm-107.284 18.637a.87.87 0 1 0 .002-1.738.87.87 0 0 0-.002 1.738ZM84.851 246.843a1.056 1.056 0 1 0 0-2.112 1.056 1.056 0 0 0 0 2.112ZM284.457 57.09a1.127 1.127 0 1 0 0-2.254 1.127 1.127 0 0 0 0 2.254Zm-6.597 103.911a.852.852 0 1 0 0-1.704.852.852 0 0 0 0 1.704Zm-18.031-98.593a1.003 1.003 0 1 0 0-2.006 1.003 1.003 0 0 0 0 2.006Zm-34.348-7.722a1.234 1.234 0 1 0 0-2.467 1.234 1.234 0 0 0 0 2.467Zm-8.362 9.531a.71.71 0 1 0 0-1.42.71.71 0 0 0 0 1.42Zm-110.148 79.166a.994.994 0 1 0 0-1.988.994.994 0 0 0 0 1.988Zm148.518-59a.719.719 0 1 0 0-1.438.719.719 0 0 0 0 1.438ZM74.275 85.74a1.18 1.18 0 1 0 0-2.361 1.18 1.18 0 0 0 0 2.36Zm-8.04 122.16a1.18 1.18 0 1 0 0-2.362 1.18 1.18 0 0 0 0 2.362Zm38.268-102.89a1.198 1.198 0 1 0 0-2.397 1.198 1.198 0 0 0 0 2.397Zm-7.356-27.4a1.012 1.012 0 1 0 0-2.024 1.012 1.012 0 0 0 0 2.023Zm29.383-17.794a1.109 1.109 0 1 0 0-2.217 1.109 1.109 0 0 0 0 2.218Zm-3.319 255.346a1.083 1.083 0 1 0 0-2.166 1.083 1.083 0 0 0 0 2.166ZM105.142 128.91a.798.798 0 1 0-.001-1.597.798.798 0 0 0 .001 1.597Zm86.798-49.905a.755.755 0 1 0 0-1.51.755.755 0 0 0 0 1.51Zm26.031 230.268a1.172 1.172 0 1 0-.001-2.343 1.172 1.172 0 0 0 .001 2.343Zm95.904-105.874a1.127 1.127 0 1 0 0-2.254 1.127 1.127 0 0 0 0 2.254ZM195.685 312.66a.879.879 0 1 0 0-1.758.879.879 0 0 0 0 1.758Zm119.833-102.109a.833.833 0 1 0 .001-1.667.833.833 0 0 0-.001 1.667Zm-180.235 86.756a.807.807 0 1 0 0-1.615.807.807 0 0 0 0 1.615Zm150.33-189.494a.754.754 0 1 0 0-1.508.754.754 0 0 0 0 1.508ZM110.811 86.05a1.012 1.012 0 1 0-.001-2.022 1.012 1.012 0 0 0 .001 2.023Zm228.55 156.728a.95.95 0 1 0 .001-1.899.95.95 0 0 0-.001 1.899ZM59.755 178.14a.781.781 0 1 0 0-1.563.781.781 0 0 0 0 1.563Zm186.821 89.792a.906.906 0 1 0-.001-1.811.906.906 0 0 0 .001 1.811ZM303.581 74.08a1.065 1.065 0 1 0 0-2.131 1.065 1.065 0 0 0 0 2.13Zm1.704 120.648a.772.772 0 1 0 0-1.544.772.772 0 0 0 0 1.544ZM67.53 224.043a1.224 1.224 0 1 0 0-2.449 1.224 1.224 0 0 0 0 2.449Zm85.101-156.081a1.162 1.162 0 1 0 .001-2.325 1.162 1.162 0 0 0-.001 2.325Zm-41.288 67.577a.72.72 0 1 0 0-1.438.72.72 0 0 0 0 1.438Zm3.901-23.98a.932.932 0 1 0 0-1.863.932.932 0 0 0 0 1.863Zm-43.43 57.794a1.18 1.18 0 1 0 0-2.361 1.18 1.18 0 0 0 0 2.361Zm217.691-45.769a1.216 1.216 0 1 0 0-2.432 1.216 1.216 0 0 0 0 2.432Zm-131.29 171.884a1.056 1.056 0 1 0 0-2.111 1.056 1.056 0 0 0 0 2.111Zm-57.473-235.52a1.136 1.136 0 1 0 0-2.273 1.136 1.136 0 0 0 0 2.273Zm-10.93 225.838a1.225 1.225 0 1 0 0-2.45 1.225 1.225 0 0 0 0 2.45Zm119.54-199.531a1.144 1.144 0 1 0 .001-2.29 1.144 1.144 0 0 0-.001 2.29Z"/><path d="M87.854 286.043a1.224 1.224 0 1 0 0-2.449 1.224 1.224 0 0 0 0 2.449Zm165.559-34.116a.852.852 0 1 0 0-1.704.852.852 0 0 0 0 1.704ZM63.119 93.596a.825.825 0 1 0 0-1.65.825.825 0 0 0 0 1.65Zm258.516 110.186a1.128 1.128 0 1 0 0-2.256 1.128 1.128 0 0 0 0 2.256Zm-18.206-75.662a.94.94 0 1 0 0-1.88.94.94 0 0 0 0 1.88ZM108.505 265.692a.932.932 0 1 0 0-1.865.932.932 0 0 0 0 1.865Zm17.663-135.93a.932.932 0 1 0 0-1.863.932.932 0 0 0 0 1.863Zm178.079 121.561a1.056 1.056 0 1 0 0-2.113 1.056 1.056 0 0 0 0 2.113Zm-100.358 93.672a.826.826 0 1 0 0-1.652.826.826 0 0 0 0 1.652Zm68.924-72.992a1.172 1.172 0 1 0 .001-2.343 1.172 1.172 0 0 0-.001 2.343ZM70.917 137.047a.897.897 0 1 0-.001-1.794.897.897 0 0 0 0 1.794ZM166.94 328.45a.736.736 0 1 0 0-1.472.736.736 0 0 0 0 1.472ZM151.001 75.799a.906.906 0 1 0 0-1.812.906.906 0 0 0 0 1.812Zm108.616 206.234a1.003 1.003 0 1 0 0-2.006 1.003 1.003 0 0 0 0 2.006Zm-158.762 8.661a.958.958 0 1 0 0-1.916.958.958 0 0 0 0 1.916Zm139.464 18.719a1.137 1.137 0 1 0-.001-2.273 1.137 1.137 0 0 0 .001 2.273ZM126.185 74.727a.932.932 0 1 0 0-1.863.932.932 0 0 0 0 1.863ZM253.88 255.832a.816.816 0 1 0 0-1.632.816.816 0 0 0 0 1.632Zm-86.683-206.39a.95.95 0 1 0 0-1.899.95.95 0 0 0 0 1.9Zm156.885 133.883a1.225 1.225 0 1 0-.002-2.45 1.225 1.225 0 0 0 .002 2.45Zm11.191 9.494a1.855 1.855 0 1 0 0-3.71 1.855 1.855 0 0 0 0 3.71Zm-12.6-87.171a.781.781 0 1 0 0-1.563.781.781 0 0 0 0 1.563Zm-45.85 33.149a.914.914 0 1 0 0-1.827.914.914 0 0 0 0 1.827Zm11.385 135.877a1.118 1.118 0 1 0 0-2.236 1.118 1.118 0 0 0 0 2.236ZM214.221 87.71a.763.763 0 1 0 0-1.527.763.763 0 0 0 0 1.527Zm-40.357 220.877a.755.755 0 1 0 0-1.51.755.755 0 0 0 0 1.51ZM302.526 71.4a1.065 1.065 0 1 0 0-2.13 1.065 1.065 0 0 0 0 2.13Zm-83.842 251.503a.915.915 0 1 0-.001-1.83.915.915 0 0 0 .001 1.83ZM109.251 84.577a.763.763 0 1 0 0-1.525.763.763 0 0 0 0 1.525Zm206.482 62.696a.976.976 0 1 0 0-1.952.976.976 0 0 0 0 1.952ZM167.267 64.246a1.092 1.092 0 1 0 0-2.184 1.092 1.092 0 0 0 0 2.184Zm176.137 120.418a1.109 1.109 0 1 0 0-2.218 1.109 1.109 0 0 0 0 2.218ZM158.369 70.938a.852.852 0 1 0 0-1.704.852.852 0 0 0 0 1.704Zm-42.506 201.464a.976.976 0 1 0 0-1.953.976.976 0 0 0 0 1.953ZM288.78 189.25a1.127 1.127 0 1 0 .002-2.254 1.127 1.127 0 0 0-.002 2.254ZM59.26 208.324a.798.798 0 1 0 0-1.597.798.798 0 0 0 0 1.597Zm51.401-107.583a.94.94 0 1 0 0-1.881.94.94 0 0 0 0 1.881Zm164.829 156.85a.87.87 0 1 0 .001-1.739.87.87 0 0 0-.001 1.739ZM257.947 89.725a.923.923 0 1 0 0-1.846.923.923 0 0 0 0 1.846ZM78.239 159.102a.932.932 0 1 0 0-1.864.932.932 0 0 0 0 1.864Zm262.502-4.525a1.137 1.137 0 1 0 0-2.273 1.137 1.137 0 0 0 0 2.273Zm-63.945 94.05a1.215 1.215 0 1 0 .001-2.43 1.215 1.215 0 0 0-.001 2.43Zm12.41-31.915a.95.95 0 1 0 0-1.899.95.95 0 0 0 0 1.899Zm-41.573 56.296a1.091 1.091 0 1 0 0-2.183 1.091 1.091 0 0 0 0 2.183ZM59.176 152.801a.817.817 0 1 0 0-1.634.817.817 0 0 0 0 1.634Zm40.305-26.545a1.917 1.917 0 1 0 0-3.833 1.917 1.917 0 0 0 0 3.833Zm-32.787-24.871a.808.808 0 1 0 0-1.616.808.808 0 0 0 0 1.616Zm12.476 55.977a1.038 1.038 0 1 0 0-2.077 1.038 1.038 0 0 0 0 2.077Zm162.541 169.906a1.233 1.233 0 1 0 0-2.466 1.233 1.233 0 0 0 0 2.466Zm-123.79-196.459a1.11 1.11 0 1 0 0-2.218 1.11 1.11 0 0 0 0 2.218Zm-4.572 97.156a.816.816 0 1 0 .001-1.633.816.816 0 0 0-.001 1.633ZM170.071 79.58a.71.71 0 1 0 0-1.42.71.71 0 0 0 0 1.42Zm54.6 8.477a1.216 1.216 0 1 0 0-2.432 1.216 1.216 0 0 0 0 2.432Zm121.558 95.133a1.056 1.056 0 1 0 .002-2.112 1.056 1.056 0 0 0-.002 2.112Zm-57.901-65.616a.976.976 0 1 0 .001-1.953.976.976 0 0 0-.001 1.953ZM105.933 83.343a.844.844 0 1 0 0-1.688.844.844 0 0 0 0 1.688ZM63.04 199.966a1.65 1.65 0 1 0 0-3.302 1.65 1.65 0 0 0 0 3.302Zm35.72-88.034a.906.906 0 1 0-.002-1.812.906.906 0 0 0 .001 1.812Zm192.931-28.677a1.242 1.242 0 1 0 0-2.485 1.242 1.242 0 0 0 0 2.485ZM147.682 35.34a.798.798 0 1 0 0-1.597.798.798 0 0 0 0 1.597ZM260.77 56.862a.728.728 0 1 0 0-1.456.728.728 0 0 0 0 1.456Zm10.053 49.467a.967.967 0 1 0 .001-1.935.967.967 0 0 0-.001 1.935ZM91.454 244.49a1.003 1.003 0 1 0 0-2.006 1.003 1.003 0 0 0 0 2.006Zm221.928-77.87a.94.94 0 1 0 0-1.88.94.94 0 0 0 0 1.88ZM282.008 55.646a1.082 1.082 0 1 0 0-2.164 1.082 1.082 0 0 0 0 2.164ZM166.564 309.92a.808.808 0 1 0 0-1.615.808.808 0 0 0 0 1.615ZM149.835 45.759a.755.755 0 1 0 0-1.51.755.755 0 0 0 0 1.51Zm-30.379 80.319a.978.978 0 0 0 0-1.953.976.976 0 0 0 0 1.953Zm-61.893 18.238a.798.798 0 1 0 .002-1.596.798.798 0 0 0-.002 1.596Zm13.268 101.73a.86.86 0 1 0 0-1.721.86.86 0 0 0 0 1.721Zm78.785-161.203a1.172 1.172 0 1 0 0-2.344 1.172 1.172 0 0 0 0 2.344Zm21.69 3.683a.94.94 0 1 0-.001-1.88.94.94 0 0 0 .001 1.88Zm143.413 32.803a1.163 1.163 0 1 0 0-2.325 1.163 1.163 0 0 0 0 2.325Zm-237.082-21.01a1.056 1.056 0 1 0 0-2.112 1.056 1.056 0 0 0 0 2.112Zm-5.757 77.216a.816.816 0 1 0 0-1.632.816.816 0 0 0 0 1.632Zm-10.829-40.923a.728.728 0 1 0 0-1.456.728.728 0 0 0 0 1.456Zm132.984-64.105a.94.94 0 1 0 0-1.882.94.94 0 0 0 0 1.882ZM38.357 206.417a.941.941 0 1 0 0-1.883.941.941 0 0 0 0 1.883Zm241.502 33.965a.976.976 0 1 0 0-1.952.976.976 0 0 0 0 1.952Zm2.608-169.822a.923.923 0 1 0 0-1.845.923.923 0 0 0 0 1.846Zm-42.956 221.546a1.11 1.11 0 1 0-.002-2.22 1.11 1.11 0 0 0 .002 2.22Zm44.965-130.944a.79.79 0 1 0 0-1.58.79.79 0 0 0 0 1.58ZM140.732 46.333a1.03 1.03 0 1 0 0-2.06 1.03 1.03 0 0 0 0 2.06Z"/><path d="M346.263 183.828a.816.816 0 1 0 .001-1.633.816.816 0 0 0-.001 1.633ZM71.132 269.5a1.207 1.207 0 1 0 0-2.414 1.207 1.207 0 0 0 0 2.414Zm271.478-84.055a1.073 1.073 0 1 0 0-2.147 1.073 1.073 0 0 0 0 2.147Zm-28.9-56.357a1.118 1.118 0 1 0 0-2.236 1.118 1.118 0 0 0 0 2.236ZM89.948 254.997a1.846 1.846 0 1 0 0-3.693 1.846 1.846 0 0 0 0 3.693ZM311.791 82.376a1.162 1.162 0 1 0 0-2.324 1.162 1.162 0 0 0 0 2.324ZM53.657 209.594a.932.932 0 1 0 0-1.864.932.932 0 0 0 0 1.864Zm71.664 117.214a.861.861 0 1 0 0-1.722.861.861 0 0 0 0 1.722ZM68.063 159.279a2.015 2.015 0 1 0 0-4.03 2.015 2.015 0 0 0 0 4.03Zm25.364-57.216a.834.834 0 1 0 .001-1.668.834.834 0 0 0 0 1.668Zm49.4-61.735a.976.976 0 1 0 0-1.953.976.976 0 0 0 0 1.953ZM82.402 195.19a1.056 1.056 0 1 0 0-2.111 1.056 1.056 0 0 0 0 2.111Zm201.566 111.976a.727.727 0 1 0 .002-1.454.727.727 0 0 0-.002 1.454Zm2.931-35.4a1.11 1.11 0 1 0 0-2.22 1.11 1.11 0 0 0 0 2.22Zm61.105-111.988a.817.817 0 1 0 0-1.635.817.817 0 0 0 0 1.635Zm-270.58 33.494a.826.826 0 1 0-.001-1.652.826.826 0 0 0 0 1.652ZM307.929 84.907a.754.754 0 1 0 0-1.509.754.754 0 0 0 0 1.51ZM87.659 71.272a1.136 1.136 0 1 0 0-2.272 1.136 1.136 0 0 0 0 2.272Zm72.054-7.552a1.047 1.047 0 1 0 0-2.095 1.047 1.047 0 0 0 0 2.094ZM98.664 229.686a1.038 1.038 0 1 0 0-2.077 1.038 1.038 0 0 0 0 2.077Zm84.218 74.341a.879.879 0 1 0-.001-1.757.879.879 0 0 0 .001 1.757Zm57.67-14.106a.879.879 0 1 0 0-1.757.879.879 0 0 0 0 1.757ZM133.783 53.188a1.128 1.128 0 1 0 0-2.255 1.128 1.128 0 0 0 0 2.255Zm50.474 34.896a1.083 1.083 0 1 0 0-2.166 1.083 1.083 0 0 0 0 2.165Zm117.337 108.065a.72.72 0 1 0 0-1.438.72.72 0 0 0 0 1.438ZM177.12 75.897a.807.807 0 1 0 0-1.615.807.807 0 0 0 0 1.615Zm-49.179 174.051a.958.958 0 1 0 0-1.916.958.958 0 0 0 0 1.916ZM312.296 113.98a.976.976 0 1 0 0-1.952.976.976 0 0 0 0 1.952ZM132.658 255.79a1.145 1.145 0 1 0-.001-2.29 1.145 1.145 0 0 0 .001 2.29Zm182.364-50.909a.808.808 0 1 0 0-1.615.808.808 0 0 0 0 1.615ZM97.8 201.464a1.189 1.189 0 1 0 0-2.378 1.189 1.189 0 0 0 0 2.378Zm230.534 53.5a1.154 1.154 0 1 0 0-2.308 1.154 1.154 0 0 0 0 2.308ZM79.055 173.295a.727.727 0 1 0 .002-1.454.727.727 0 0 0-.002 1.454Zm60.715-74.694a1.19 1.19 0 1 0 0-2.38 1.19 1.19 0 0 0 0 2.38Zm1.716 170.12a1.003 1.003 0 1 0 0-2.006 1.003 1.003 0 0 0 0 2.006ZM64.883 115.639a1.233 1.233 0 1 0 0-2.467 1.233 1.233 0 0 0 0 2.467Zm227.169 76.638a1.207 1.207 0 1 0 0-2.414 1.207 1.207 0 0 0 0 2.414Zm-48.43-145.941a.896.896 0 1 0 0-1.792.896.896 0 0 0 0 1.792Zm105.943 118.152a.994.994 0 1 0 0-1.988.994.994 0 0 0 0 1.988ZM76.908 180.813a1.225 1.225 0 1 0-.001-2.45 1.225 1.225 0 0 0 0 2.45Zm133.82 104.032a1.048 1.048 0 1 0-.001-2.095 1.048 1.048 0 0 0 .001 2.095ZM317.482 95.218a.94.94 0 1 0 0-1.882.94.94 0 0 0 0 1.882Zm-43.718 54.965a1.66 1.66 0 1 0 0-3.32 1.66 1.66 0 0 0 0 3.32Zm6.816 17.262a.994.994 0 1 0 0-1.988.994.994 0 0 0 0 1.988ZM98.257 155.561a1.234 1.234 0 1 0 0-2.467 1.234 1.234 0 0 0 0 2.467Zm5.642-94.051a.772.772 0 1 0 0-1.545.772.772 0 0 0 0 1.544Zm-41.154 52.019a1.215 1.215 0 1 0 0-2.431 1.215 1.215 0 0 0 0 2.431Zm169.008-42.484a.71.71 0 1 0 0-1.42.71.71 0 0 0 0 1.42Zm82.986 96.285a.825.825 0 1 0 .001-1.65.825.825 0 0 0-.001 1.65ZM110.593 272.401a1.119 1.119 0 1 0 0-2.238 1.119 1.119 0 0 0 0 2.238Zm-7.938 39.756a1.226 1.226 0 1 0-.001-2.451 1.226 1.226 0 0 0 .001 2.451Zm3.862-155.237a.808.808 0 1 0 0-1.617.808.808 0 0 0 0 1.617Zm176.592 62.872a1.074 1.074 0 1 0 0-2.147 1.074 1.074 0 0 0 0 2.147Zm-13.706 41.936a1.198 1.198 0 1 0 0-2.396 1.198 1.198 0 0 0 0 2.396Zm26.626 17.668a.773.773 0 1 0 0-1.545.773.773 0 0 0 0 1.545ZM126.565 50.479a1.233 1.233 0 1 0 0-2.467 1.233 1.233 0 0 0 0 2.467Zm188.636 227.295a.851.851 0 1 0 .001-1.703.851.851 0 0 0-.001 1.703ZM57.395 215.718a1.171 1.171 0 1 0 0-2.342 1.171 1.171 0 0 0 0 2.342ZM270.044 40.937a1.091 1.091 0 1 0 0-2.182 1.091 1.091 0 0 0 0 2.182ZM53.311 173.206a1.171 1.171 0 1 0 .001-2.342 1.171 1.171 0 0 0 0 2.342Zm283.75 29.565a1.065 1.065 0 1 0 0-2.13 1.065 1.065 0 0 0 0 2.13ZM71.932 248.706a.94.94 0 1 0 0-1.881.94.94 0 0 0 0 1.881Zm220.972-81.901a1.128 1.128 0 1 0-.001-2.255 1.128 1.128 0 0 0 .001 2.255Zm36.157-4.385a1.216 1.216 0 1 0 0-2.432 1.216 1.216 0 0 0 0 2.432ZM73.19 149.481a.95.95 0 1 0 0-1.899.95.95 0 0 0 0 1.899Zm197.288 145.884a.773.773 0 1 0-.001-1.545.773.773 0 0 0 .001 1.545ZM85.543 117.194a.86.86 0 1 0 .001-1.72.86.86 0 0 0-.001 1.72Zm58.125-74.404a1.198 1.198 0 1 0 0-2.395 1.198 1.198 0 0 0 0 2.396Zm74.651 17.745a1.073 1.073 0 1 0 .001-2.147 1.073 1.073 0 0 0-.001 2.147Zm77.045 226.2a.737.737 0 1 0-.002-1.474.737.737 0 0 0 .002 1.474Zm-192.639-74.826a1.234 1.234 0 1 0 0-2.468 1.234 1.234 0 0 0 0 2.468Zm235.32 4.321a.862.862 0 1 0-.001-1.723.862.862 0 0 0 .001 1.723Zm-25.011 55.02a1.012 1.012 0 1 0 0-2.024 1.012 1.012 0 0 0 0 2.024Zm-54.69-187.694a.985.985 0 1 0 0-1.97.985.985 0 0 0 0 1.97Zm-24.959 253.478a.826.826 0 1 0 0-1.652.826.826 0 0 0 0 1.652Zm-8.418-290.779a.737.737 0 1 0 0-1.474.737.737 0 0 0 0 1.474Zm30.094 201.123a1.039 1.039 0 1 0 0-2.078 1.039 1.039 0 0 0 0 2.078Zm-52.274 62.974a1.012 1.012 0 1 0-.001-2.023 1.012 1.012 0 0 0 .001 2.023Zm113.968-176.865a.86.86 0 1 0 .002-1.72.86.86 0 0 0-.002 1.72Zm-205.532 20.911a1.793 1.793 0 1 0 0-3.585 1.793 1.793 0 0 0 0 3.585Zm9.533-120.066a.718.718 0 1 0 0-1.436.718.718 0 0 0 0 1.436Zm96.126 29.805a1.11 1.11 0 1 0 0-2.22 1.11 1.11 0 0 0 0 2.22Zm55.746 187.534a.763.763 0 1 0 0-1.526.763.763 0 0 0 0 1.526Zm44.017-67.352a.746.746 0 1 0 0-1.492.746.746 0 0 0 0 1.492ZM72.897 89.192a1.42 1.42 0 1 0 0-2.84 1.42 1.42 0 0 0 0 2.84Zm229.903 118.2a1.065 1.065 0 1 0 0-2.13 1.065 1.065 0 0 0 0 2.13ZM256.404 28.929a1.154 1.154 0 1 0 0-2.309 1.154 1.154 0 0 0 0 2.309Zm-89.482 63.068a1.065 1.065 0 1 0 0-2.13 1.065 1.065 0 0 0 0 2.13ZM134.33 72.605a.976.976 0 1 0 0-1.952.976.976 0 0 0 0 1.952Zm-10.082 185.564a1.065 1.065 0 1 0 0-2.13 1.065 1.065 0 0 0 0 2.13Zm-17.595-143.648a1.082 1.082 0 1 0 0-2.165 1.082 1.082 0 0 0 0 2.165ZM236.69 60.852a.95.95 0 1 0 0-1.9.95.95 0 0 0 0 1.9Zm-34.757-1.231a.817.817 0 1 0 0-1.633.817.817 0 0 0 0 1.633ZM76.57 160.087a.737.737 0 1 0 0-1.474.737.737 0 0 0 0 1.474Zm44.723-36.646a1.189 1.189 0 1 0 0-2.377 1.189 1.189 0 0 0 0 2.377Zm-5.837-4.754a.781.781 0 1 0 0-1.563.781.781 0 0 0 0 1.563Zm20.255-19.146a.727.727 0 1 0 0-1.454.727.727 0 0 0 0 1.454Zm34.22 237.918a1.101 1.101 0 1 0 0-2.202 1.101 1.101 0 0 0 0 2.202Zm98.79-90.587a1.029 1.029 0 1 0 0-2.058 1.029 1.029 0 0 0 0 2.058ZM146.805 44.292a1.171 1.171 0 1 0 0-2.342 1.171 1.171 0 0 0 0 2.342Zm-19.823 58.604a1.065 1.065 0 1 0 0-2.13 1.065 1.065 0 0 0 0 2.13Zm94.346-19.197a.896.896 0 1 0 0-1.792.896.896 0 0 0 0 1.792Zm84.711 119.115a.79.79 0 1 0 .002-1.578.79.79 0 0 0-.002 1.578Z"/><path d="M158.697 62.25a.878.878 0 1 0 0-1.757.878.878 0 0 0 0 1.756ZM48.73 217.607a1.065 1.065 0 1 0 0-2.13 1.065 1.065 0 0 0 0 2.13Zm52.383-14.856a.755.755 0 1 0 0-1.51.755.755 0 0 0 0 1.51Zm202.088 79.183a.72.72 0 1 0 0-1.438.72.72 0 0 0 0 1.438Zm-140.007-2.6a.79.79 0 1 0 0-1.58.79.79 0 0 0 0 1.58Zm67.302 24.237a.932.932 0 1 0 0-1.863.932.932 0 0 0 0 1.863ZM97.607 242.353a1.003 1.003 0 1 0 0-2.005 1.003 1.003 0 0 0 0 2.005Zm147.463 46.231a.905.905 0 1 0 0-1.81.905.905 0 0 0 0 1.81Zm30.093-152.363a1.101 1.101 0 1 0 0-2.202 1.101 1.101 0 0 0 0 2.202Zm-20.128-48.556a1.162 1.162 0 1 0 0-2.324 1.162 1.162 0 0 0 0 2.324Zm43.079 49.772a1.172 1.172 0 1 0-.001-2.343 1.172 1.172 0 0 0 .001 2.343Zm-177.909-9.257a1.145 1.145 0 1 0 0-2.29 1.145 1.145 0 0 0 0 2.29Zm175.911 8.155a.78.78 0 1 0 .002-1.56.78.78 0 0 0-.002 1.56Zm-193.93 77.653a1.207 1.207 0 1 0 0-2.414 1.207 1.207 0 0 0 0 2.414Zm216.456 40.995a1.119 1.119 0 1 0-.002-2.238 1.119 1.119 0 0 0 .002 2.238Zm-11.517 1.836a1.038 1.038 0 1 0 0-2.077 1.038 1.038 0 0 0 0 2.077ZM55.938 146.871a.718.718 0 1 0 .001-1.437.718.718 0 0 0 0 1.437Zm22.428 19.562a1.172 1.172 0 1 0 0-2.344 1.172 1.172 0 0 0 0 2.344Zm144.193 107.868a1.207 1.207 0 1 0 0-2.414 1.207 1.207 0 0 0 0 2.414Zm47.056 37.492a.72.72 0 1 0 0-1.438.72.72 0 0 0 0 1.438Zm24.416-169.544a.844.844 0 1 0-.001-1.687.844.844 0 0 0 .001 1.687ZM161.958 91.153a1.145 1.145 0 1 0 0-2.289 1.145 1.145 0 0 0 0 2.29Zm147.871 4.696a1.047 1.047 0 1 0 0-2.095 1.047 1.047 0 0 0 0 2.094Zm-20.458-5.042a1.216 1.216 0 1 0 0-2.432 1.216 1.216 0 0 0 0 2.432Zm-12.626 71.418a.808.808 0 1 0 0-1.617.808.808 0 0 0 0 1.617Zm-51.391 130.714a1.163 1.163 0 1 0 0-2.327 1.163 1.163 0 0 0 0 2.327Zm35.12 24.445a.967.967 0 1 0 .001-1.935.967.967 0 0 0-.001 1.935ZM203.059 89.191a1.189 1.189 0 1 0 0-2.378 1.189 1.189 0 0 0 0 2.378Zm84.644 163.724a.737.737 0 1 0 0-1.474.737.737 0 0 0 0 1.474ZM248.884 51.297a.914.914 0 1 0 0-1.828.914.914 0 0 0 0 1.828ZM75.097 210.437a1.908 1.908 0 1 0 0-3.816 1.908 1.908 0 0 0 0 3.816Zm239.642-38.156a.914.914 0 1 0 0-1.827.914.914 0 0 0 0 1.827Zm-22.72 5.886a1.074 1.074 0 1 0 0-2.147 1.074 1.074 0 0 0 0 2.147Zm11.883-54.708a.923.923 0 1 0 0-1.845.923.923 0 0 0 0 1.845ZM147.971 327.998a1.083 1.083 0 1 0 0-2.166 1.083 1.083 0 0 0 0 2.166Zm-5.466-5.992a1.1 1.1 0 1 0 0-2.2 1.1 1.1 0 0 0 0 2.2Zm119.168-32.178a1.19 1.19 0 1 0-.002-2.38 1.19 1.19 0 0 0 .002 2.38Zm-106.634-.749a1.065 1.065 0 1 0 0-2.13 1.065 1.065 0 0 0 0 2.13Zm94.323-214.274a.897.897 0 1 0 0-1.794.897.897 0 0 0 0 1.794Zm75.45 99.315a.728.728 0 1 0 0-1.456.728.728 0 0 0 0 1.456ZM220.066 298.593a1.074 1.074 0 1 0 0-2.148 1.074 1.074 0 0 0 0 2.148ZM264.877 59.38a1.225 1.225 0 1 0 0-2.45 1.225 1.225 0 0 0 0 2.45ZM63.923 114.879a.8.8 0 1 0 0-1.598.8.8 0 0 0 0 1.598Zm253.799 80.859a2.006 2.006 0 1 0-.001-4.011 2.006 2.006 0 0 0 .001 4.011ZM280.321 80.75a.719.719 0 1 0 0-1.438.719.719 0 0 0 0 1.438ZM148.319 282.545a.727.727 0 1 0 .002-1.454.727.727 0 0 0-.002 1.454ZM339.947 206a.994.994 0 1 0 0-1.988.994.994 0 0 0 0 1.988Zm-65.966-42.84a1.012 1.012 0 1 0 0-2.023 1.012 1.012 0 0 0 0 2.023Zm-18.556 146.262a1.012 1.012 0 1 0 0-2.024 1.012 1.012 0 0 0 0 2.024Zm60.921-289.323a1.26 1.26 0 1 0 0-2.52 1.26 1.26 0 0 0 0 2.52ZM1.712 189.358a1.056 1.056 0 1 0 .001-2.111 1.056 1.056 0 0 0-.001 2.111ZM316.898 28.469a.915.915 0 1 0-.001-1.83.915.915 0 0 0 .001 1.83ZM58.185 71.489a1.225 1.225 0 1 0 0-2.45 1.225 1.225 0 0 0 0 2.45Zm27.433-58.641a.719.719 0 1 0 0-1.438.719.719 0 0 0 0 1.438Zm235.279 10.675a1.091 1.091 0 1 0 0-2.182 1.091 1.091 0 0 0 0 2.182Zm-60.139-2.448a1.145 1.145 0 1 0 0-2.29 1.145 1.145 0 0 0 0 2.29ZM52.39 302.401a1.153 1.153 0 1 0 0-2.307 1.153 1.153 0 0 0 0 2.307ZM44.044 87.737a.825.825 0 1 0 0-1.651.825.825 0 0 0 0 1.65Zm47.182-59.126a1.216 1.216 0 1 0 0-2.431 1.216 1.216 0 0 0 0 2.431ZM328.942 306.35a.941.941 0 1 0 0-1.882.941.941 0 0 0 0 1.882Z"/></g><defs><clipPath id="a"><path fill="#fff" d="M.57.828h367.714v367.714H.57z"/></clipPath></defs></svg>