<svg xmlns="http://www.w3.org/2000/svg" width="64" height="23" fill="none"><g clip-path="url(#a)"><path fill="#fff" d="m1.335 1.44 12.16-.913c1.476-.14 1.863-.035 2.812.633l3.9 2.74c.633.458.844.598.844 1.125v15.007c0 .949-.351 1.511-1.546 1.581l-14.128.844c-.914.035-1.335-.07-1.792-.668l-2.847-3.69C.211 17.396 0 16.904 0 16.307V2.952c0-.773.351-1.44 1.335-1.511Z"/><path fill="#000" fill-rule="evenodd" d="m13.495.528-12.16.913C.351 1.511 0 2.18 0 2.953v13.354c0 .598.21 1.125.738 1.793l2.847 3.725c.457.597.913.738 1.792.667l14.128-.843c1.195-.07 1.546-.633 1.546-1.582V5.026c0-.492-.176-.633-.773-1.054-.035-.035-.07-.035-.105-.07l-3.866-2.707c-.914-.703-1.3-.773-2.812-.667ZM5.693 4.78c-1.16.07-1.405.105-2.073-.457l-1.652-1.3c-.176-.176-.105-.387.351-.422l11.703-.843c.984-.07 1.476.246 1.863.562l2.003 1.44c.106.036.316.282.035.282l-12.09.738h-.14ZM4.358 19.927V7.17c0-.563.176-.809.668-.844l13.881-.808c.457-.035.668.246.668.808v12.652c0 .562-.105 1.02-.843 1.054l-13.285.773c-.738.07-1.09-.21-1.09-.878ZM17.466 7.873c.07.386 0 .773-.386.808l-.633.14v9.419c-.562.316-1.054.457-1.476.457-.668 0-.843-.21-1.37-.843l-4.218-6.608v6.362l1.336.316s0 .773-1.054.773l-2.953.176c-.07-.176 0-.598.282-.668l.773-.211V9.56l-1.055-.106c-.07-.386.141-.949.738-.984l3.163-.21 4.358 6.677V9.032l-1.124-.14a.717.717 0 0 1 .667-.844l2.953-.175Z" clip-rule="evenodd"/><path fill="#000" d="M28.994 16.094v-5.798h.105l4.182 5.798h1.336v-8.54H33.14v5.8h-.106l-4.182-5.8h-1.335v8.54h1.476Zm9.734.106c1.933 0 3.093-1.265 3.093-3.374 0-2.074-1.195-3.374-3.093-3.374-1.933 0-3.092 1.265-3.092 3.374-.035 2.109 1.16 3.374 3.092 3.374Zm0-1.23c-1.019 0-1.616-.773-1.616-2.144 0-1.335.597-2.144 1.616-2.144 1.02 0 1.617.773 1.617 2.144-.035 1.37-.597 2.144-1.617 2.144Zm4.429-6.924v1.617h-1.02v1.16h1.02v3.514c0 1.265.597 1.757 2.073 1.757.281 0 .562-.035.773-.07V14.9c-.175.036-.28.036-.492.036-.597 0-.878-.282-.878-.914v-3.163h1.37v-1.16h-1.37V8.082h-1.476v-.036Zm3.725 8.048h1.476V9.628h-1.476v6.466Zm.738-7.556a.87.87 0 0 0 .878-.878.87.87 0 0 0-.878-.879.87.87 0 0 0-.879.879.87.87 0 0 0 .879.878Zm4.744 7.662c1.933 0 3.093-1.265 3.093-3.374 0-2.074-1.195-3.374-3.093-3.374-1.933 0-3.092 1.265-3.092 3.374-.036 2.109 1.16 3.374 3.092 3.374Zm0-1.23c-1.019 0-1.616-.773-1.616-2.144 0-1.335.597-2.144 1.616-2.144 1.02 0 1.617.773 1.617 2.144-.035 1.37-.598 2.144-1.617 2.144Zm3.972 1.124h1.476V12.3c0-.95.562-1.546 1.405-1.546.879 0 1.3.492 1.3 1.476v3.83h1.477v-4.182c0-1.546-.773-2.425-2.214-2.425-.95 0-1.617.457-1.933 1.16h-.106v-.984h-1.405v6.466Z"/></g><defs><clipPath id="a"><path fill="#fff" d="M0 .492h63.399v22H0z"/></clipPath></defs></svg>