<svg xmlns="http://www.w3.org/2000/svg" width="65" height="23" fill="none"><g clip-path="url(#a)"><path fill="#161618" d="m2.249 1.527 12.16-.914c1.475-.14 1.862-.035 2.81.633l3.902 2.74c.632.458.843.598.843 1.125v15.007c0 .949-.351 1.51-1.546 1.581l-14.128.844c-.914.035-1.335-.07-1.792-.668l-2.847-3.69c-.527-.703-.738-1.195-.738-1.793V3.038c0-.773.352-1.441 1.336-1.511Z"/><path fill="#CFD1D5" fill-rule="evenodd" d="m14.408.614-12.16.913c-.983.07-1.335.738-1.335 1.511v13.355c0 .598.21 1.125.738 1.792l2.847 3.726c.457.597.913.738 1.792.667l14.128-.843c1.195-.07 1.546-.633 1.546-1.581V5.112c0-.492-.175-.633-.773-1.054-.035-.036-.07-.036-.105-.07L17.22 1.28c-.914-.703-1.3-.773-2.812-.667ZM6.606 4.866c-1.16.07-1.405.105-2.073-.457l-1.652-1.3c-.176-.176-.105-.387.352-.422l11.702-.843c.984-.07 1.476.246 1.863.562l2.003 1.44c.106.036.317.282.035.282l-12.089.738h-.14ZM5.271 20.013V7.256c0-.563.176-.809.668-.844l13.881-.808c.457-.035.668.246.668.808v12.652c0 .562-.105 1.02-.843 1.054l-13.285.774c-.738.07-1.09-.211-1.09-.88ZM18.379 7.959c.07.386 0 .773-.386.808l-.633.14v9.419c-.562.316-1.054.457-1.476.457-.667 0-.843-.211-1.37-.844l-4.217-6.607v6.361l1.335.317s0 .773-1.054.773l-2.952.176c-.07-.176 0-.598.28-.668l.774-.211V9.645L7.626 9.54c-.07-.387.14-.949.738-.984l3.162-.21 4.358 6.677V9.117l-1.124-.14a.718.718 0 0 1 .668-.844l2.951-.175Z" clip-rule="evenodd"/><path fill="#CFD1D5" d="M29.907 16.18v-5.798h.105l4.182 5.798h1.336V7.64h-1.476v5.8h-.106l-4.182-5.8h-1.335v8.54h1.476Zm9.735.106c1.932 0 3.092-1.266 3.092-3.374 0-2.074-1.195-3.374-3.093-3.374-1.932 0-3.092 1.265-3.092 3.374-.035 2.108 1.16 3.374 3.093 3.374Zm0-1.23c-1.02 0-1.617-.773-1.617-2.144 0-1.336.597-2.144 1.617-2.144 1.019 0 1.616.773 1.616 2.144-.035 1.37-.597 2.144-1.617 2.144Zm4.428-6.924V9.75h-1.02v1.16h1.02v3.514c0 1.265.597 1.757 2.073 1.757.281 0 .562-.035.773-.07v-1.125c-.175.036-.28.036-.492.036-.597 0-.878-.282-.878-.914v-3.163h1.37v-1.16h-1.37V8.168H44.07v-.036Zm3.725 8.048h1.476V9.714h-1.476v6.466Zm.738-7.556a.87.87 0 0 0 .878-.878.87.87 0 0 0-.878-.879.87.87 0 0 0-.879.879.87.87 0 0 0 .879.878Zm4.744 7.662c1.933 0 3.093-1.266 3.093-3.374 0-2.074-1.195-3.374-3.093-3.374-1.933 0-3.092 1.265-3.092 3.374-.035 2.108 1.16 3.374 3.092 3.374Zm0-1.23c-1.019 0-1.616-.773-1.616-2.144 0-1.336.597-2.144 1.616-2.144 1.02 0 1.617.773 1.617 2.144-.035 1.37-.597 2.144-1.617 2.144Zm3.972 1.124h1.476v-3.795c0-.95.562-1.547 1.405-1.547.879 0 1.3.492 1.3 1.477v3.83h1.477v-4.182c0-1.546-.773-2.425-2.214-2.425-.95 0-1.617.457-1.933 1.16h-.106v-.984H57.25v6.466Z"/></g><defs><clipPath id="a"><path fill="#fff" d="M.913.578h63.4v22H.912z"/></clipPath></defs></svg>