<svg xmlns="http://www.w3.org/2000/svg" width="92" height="23" fill="none"><path fill="#47B972" d="M0 .492h22v22H0v-22Z"/><path fill="#fff" d="M16.133 8.557h-.061a2.811 2.811 0 0 0-1.849-.641 3.289 3.289 0 0 0-2.49 1.1l.901 1.008a2.257 2.257 0 0 1 1.605-.703 2.038 2.038 0 0 1 1.986 2.063v.137a2.02 2.02 0 0 1-1.834 2.185c-.06 0-.122.015-.183.015-3.056 0-2.2-5.744-6.294-5.744a3.417 3.417 0 0 0-3.499 3.346v6.386h1.467v-3.3h.06c.52.428 1.177.657 1.85.641a3.266 3.266 0 0 0 2.536-1.084l-.948-1.024a2.257 2.257 0 0 1-1.604.703 2.015 2.015 0 0 1-1.986-2.047c0-.046 0-.092.015-.153A2.02 2.02 0 0 1 7.64 9.26c.06 0 .122-.015.183-.015 3.055 0 2.2 5.744 6.294 5.744a3.417 3.417 0 0 0 3.499-3.345V5.242h-1.467v3.315h-.015Z"/><path fill="#111" d="M31.686 5.915h-3.82v9.763h1.605v-3.804h2.2c2.291 0 3.529-1.116 3.529-2.98 0-1.848-1.253-2.979-3.514-2.979Zm0 4.4h-2.2V7.382h2.2c1.268 0 1.864.474 1.864 1.467 0 .993-.626 1.497-1.894 1.497l.03-.03Zm9.243-1.298v.794a2.5 2.5 0 0 0-2.062-.962c-1.849 0-3.346 1.512-3.346 3.36v.138a3.366 3.366 0 0 0 3.178 3.545h.168c.81.03 1.589-.336 2.093-.978v.794h1.466V9.017H40.93ZM38.974 14.5a2.012 2.012 0 0 1-2.017-2.001v-.153a2.02 2.02 0 0 1 1.833-2.184 2.02 2.02 0 0 1 2.185 1.833 1.26 1.26 0 0 1 0 .336 2.001 2.001 0 0 1-1.833 2.154c-.046.015-.107.015-.168.015Zm11.26-3.01v4.217h-1.467v-3.743c0-1.115-.596-1.741-1.574-1.741a1.636 1.636 0 0 0-1.726 1.573v3.897H44V9.001h1.467v.825a2.352 2.352 0 0 1 2.062-.993 2.579 2.579 0 0 1 2.704 2.445v.214Zm6.386-5.866V9.81a2.493 2.493 0 0 0-2.094-.962 3.351 3.351 0 0 0-3.345 3.376v.138c-.107 1.848 1.314 3.437 3.177 3.544h.168c.81.03 1.59-.336 2.093-.978v.795h1.467V5.64H56.62v-.015ZM54.664 14.5a2.011 2.011 0 0 1-2.017-2.001v-.153a2.02 2.02 0 0 1 1.834-2.184 2.02 2.02 0 0 1 2.184 1.833c.016.107.016.229 0 .336a2.001 2.001 0 0 1-1.833 2.154c-.046.015-.107.015-.168.015Zm9.992-5.484v.794a2.493 2.493 0 0 0-2.094-.962c-1.848 0-3.345 1.512-3.345 3.36v.138a3.365 3.365 0 0 0 3.178 3.545h.167a2.55 2.55 0 0 0 2.094-.978v.794h1.466v-6.69h-1.466ZM62.7 14.5a2.012 2.012 0 0 1-2.017-2.001v-.153a2.02 2.02 0 0 1 1.834-2.184 2.02 2.02 0 0 1 2.184 1.833c.016.107.016.229 0 .336a2.001 2.001 0 0 1-1.833 2.154c-.046.015-.107.015-.168.015Zm8.983-8.586h-3.896v9.793h3.896c3.071 0 5.088-1.955 5.088-4.904 0-2.933-1.971-4.889-5.088-4.889Zm0 8.296h-2.307V7.428h2.307c2.307 0 3.423 1.39 3.423 3.391.015 2.002-1.116 3.392-3.423 3.392Zm9.457-5.36c-1.94.045-3.468 1.665-3.422 3.605a3.516 3.516 0 0 0 7.028-.092 3.463 3.463 0 0 0-3.407-3.513c-.061-.016-.138 0-.199 0Zm0 5.652a2.064 2.064 0 0 1-2.093-2.032v-.122a2.113 2.113 0 0 1 1.971-2.23 2.113 2.113 0 0 1 2.23 1.97v.245a2.05 2.05 0 0 1-1.94 2.154c-.06.015-.107.015-.168.015Zm10.527-4.598-.948 1.008a2.254 2.254 0 0 0-1.604-.672c-1.1.015-2.001.917-1.986 2.017v.137a2.025 2.025 0 0 0 1.864 2.154h.122a2.33 2.33 0 0 0 1.65-.733l.886 1.024a3.272 3.272 0 0 1-2.52 1.069 3.362 3.362 0 0 1-3.514-3.193v-.32a3.375 3.375 0 0 1 3.208-3.515h.306a3.034 3.034 0 0 1 2.536 1.024Z"/></svg>