<svg xmlns="http://www.w3.org/2000/svg" width="76" height="23" fill="none"><g clip-path="url(#a)"><path fill="#33475B" d="M8.147 4.023v6.015H2.622V4.023H0v14.358h2.622v-5.82h5.524v5.82h2.623V4.023H8.147Zm11.016 9.717a2.17 2.17 0 1 1-4.34 0V7.59h-2.487v6.15a4.653 4.653 0 0 0 9.305 0V7.59h-2.478v6.15Zm18.43-5.516c0-1.261.835-1.66 1.748-1.66.737 0 1.709.56 2.346 1.24l1.628-1.92c-.813-1.1-2.462-1.86-3.813-1.86-2.699 0-4.65 1.58-4.65 4.2 0 4.861 5.941 3.319 5.941 6.04 0 .838-.815 1.58-1.747 1.58-1.471 0-1.948-.72-2.624-1.48l-1.808 1.88c1.157 1.419 2.583 2.14 4.291 2.14 2.564 0 4.627-1.6 4.627-4.1 0-5.397-5.942-3.72-5.942-6.06m36.76 7.863c-1.469 0-1.887-.636-1.887-1.61v-4.31h2.285V7.981h-2.285V5.1l-2.522 1.132v8.781c0 2.247 1.55 3.379 3.674 3.379.334.005.668-.022.996-.08l.615-2.265c-.278.019-.596.038-.875.038M28.63 7.662c-1.232 0-2.092.358-2.924 1.173V4.11h-2.49v8.76c0 3.279 2.37 5.525 5.034 5.525 2.955 0 5.555-2.286 5.555-5.365 0-3.04-2.393-5.365-5.175-5.365m-.015 8.223a2.826 2.826 0 1 1 0-5.653 2.826 2.826 0 0 1 0 5.653ZM55.684 12.9c0-3.085-2.594-5.365-5.554-5.365-2.664 0-5.035 2.246-5.035 5.525v8.765h2.491V17.09c.83.814 1.692 1.174 2.922 1.174 2.782 0 5.176-2.325 5.176-5.366Zm-2.359-.032a2.827 2.827 0 1 1-5.653 0 2.827 2.827 0 0 1 5.653 0Z"/><path fill="#FF7A59" d="M63.733 7.413V4.91a1.928 1.928 0 0 0 1.112-1.737v-.058a1.927 1.927 0 0 0-1.928-1.927h-.057a1.928 1.928 0 0 0-1.928 1.927v.058a1.927 1.927 0 0 0 1.112 1.737v2.503a5.47 5.47 0 0 0-2.596 1.143l-6.864-5.347a2.16 2.16 0 0 0 .077-.54 2.172 2.172 0 1 0-2.174 2.166 2.148 2.148 0 0 0 1.07-.29l6.759 5.26a5.476 5.476 0 0 0 .084 6.167l-2.056 2.056a1.765 1.765 0 0 0-.514-.083 1.784 1.784 0 1 0 1.785 1.784 1.758 1.758 0 0 0-.084-.513l2.034-2.035a5.485 5.485 0 1 0 4.169-9.768Zm-.843 8.232a2.813 2.813 0 1 1 0-5.625 2.814 2.814 0 0 1 .003 5.624"/></g><defs><clipPath id="a"><path fill="#fff" d="M0 .492h75.226v22H0z"/></clipPath></defs></svg>