<svg xmlns="http://www.w3.org/2000/svg" width="79" height="20" fill="none"><g clip-path="url(#a)"><path fill="#000" d="m25.118 15.67.977-2.268c1.055.788 2.456 1.197 3.842 1.197 1.024 0 1.67-.393 1.67-.992-.016-1.67-6.127-.362-6.174-4.551-.016-2.126 1.874-3.764 4.551-3.764 1.59 0 3.181.394 4.315 1.292l-.913 2.314c-1.04-.66-2.33-1.133-3.56-1.133-.834 0-1.385.393-1.385.897.016 1.638 6.173.74 6.236 4.74 0 2.174-1.842 3.701-4.488 3.701-1.937 0-3.716-.457-5.07-1.433Zm37.465-3.086a2.834 2.834 0 0 1-2.457 1.433 2.816 2.816 0 0 1-2.819-2.82 2.816 2.816 0 0 1 2.819-2.818c1.055 0 1.968.582 2.457 1.433l2.693-1.496a5.92 5.92 0 0 0-5.15-3.024 5.908 5.908 0 0 0-5.905 5.906 5.908 5.908 0 0 0 5.905 5.905 5.87 5.87 0 0 0 5.15-3.023l-2.693-1.496ZM36.032.394h3.37v16.489h-3.37V.395Zm30.567 0v16.489h3.37v-4.945l4 4.945h4.315l-5.087-5.874 4.709-5.48H73.78l-3.811 4.55V.396h-3.37ZM49.416 12.616c-.488.803-1.496 1.402-2.63 1.402a2.816 2.816 0 0 1-2.818-2.82 2.816 2.816 0 0 1 2.819-2.818c1.133 0 2.141.63 2.63 1.449v2.787Zm0-7.087v1.339c-.55-.93-1.92-1.575-3.354-1.575-2.96 0-5.291 2.614-5.291 5.89 0 3.275 2.33 5.921 5.291 5.921 1.433 0 2.803-.646 3.354-1.575v1.339h3.37V5.528h-3.37Z"/><path fill="#E01E5A" d="M4.283 12.598c0 1.15-.929 2.079-2.078 2.079-1.15 0-2.079-.93-2.079-2.079 0-1.15.93-2.079 2.079-2.079h2.078v2.08Zm1.04 0c0-1.15.929-2.079 2.079-2.079 1.15 0 2.078.93 2.078 2.08v5.196a2.078 2.078 0 1 1-4.158 0v-5.197Z"/><path fill="#36C5F0" d="M7.402 4.251a2.078 2.078 0 1 1 0-4.157c1.15 0 2.078.929 2.078 2.078v2.08H7.402Zm0 1.055c1.15 0 2.078.93 2.078 2.08a2.076 2.076 0 0 1-2.078 2.078H2.189a2.078 2.078 0 1 1 .001-4.158h5.212Z"/><path fill="#2EB67D" d="M15.732 7.385c0-1.15.93-2.079 2.08-2.079 1.149 0 2.078.93 2.078 2.08 0 1.149-.93 2.078-2.079 2.078h-2.079V7.385Zm-1.039 0c0 1.15-.929 2.079-2.079 2.079-1.15 0-2.078-.93-2.078-2.079V2.172c0-1.15.929-2.078 2.078-2.078 1.15 0 2.08.929 2.08 2.078v5.213Z"/><path fill="#ECB22E" d="M12.614 15.716a2.078 2.078 0 1 1 0 4.158c-1.15 0-2.078-.93-2.078-2.079v-2.079h2.078Zm0-1.039c-1.15 0-2.078-.93-2.078-2.079 0-1.15.929-2.079 2.078-2.079h5.213c1.15 0 2.079.93 2.079 2.08 0 1.149-.93 2.078-2.079 2.078h-5.213Z"/></g><defs><clipPath id="a"><path fill="#fff" d="M0 0h78.425v20H0z"/></clipPath></defs></svg>