<svg xmlns="http://www.w3.org/2000/svg" width="66" height="23" fill="none"><g clip-path="url(#a)"><path fill="#EA4335" d="M27.68 11.773c0 3.053-2.39 5.304-5.321 5.304-2.932 0-5.32-2.25-5.32-5.304 0-3.076 2.388-5.304 5.32-5.304 2.931 0 5.32 2.228 5.32 5.304Zm-2.33 0c0-1.909-1.384-3.214-2.991-3.214-1.607 0-2.992 1.305-2.992 3.214 0 1.889 1.385 3.214 2.992 3.214s2.991-1.328 2.991-3.214Z"/><path fill="#FBBC05" d="M39.157 11.773c0 3.053-2.388 5.304-5.32 5.304-2.932 0-5.32-2.25-5.32-5.304 0-3.073 2.388-5.304 5.32-5.304 2.931 0 5.32 2.228 5.32 5.304Zm-2.329 0c0-1.909-1.384-3.214-2.991-3.214-1.607 0-2.992 1.305-2.992 3.214 0 1.889 1.385 3.214 2.992 3.214s2.991-1.328 2.991-3.214Z"/><path fill="#4285F4" d="M50.158 6.79v9.521c0 3.917-2.31 5.517-5.041 5.517-2.57 0-4.118-1.72-4.702-3.125l2.028-.845c.361.864 1.246 1.883 2.671 1.883 1.748 0 2.832-1.079 2.832-3.11v-.762h-.082c-.521.643-1.525 1.205-2.793 1.205-2.652 0-5.081-2.31-5.081-5.282 0-2.994 2.43-5.323 5.081-5.323 1.265 0 2.27.562 2.793 1.186h.082v-.863h2.212v-.003Zm-2.047 5.002c0-1.868-1.246-3.233-2.832-3.233-1.607 0-2.953 1.365-2.953 3.233 0 1.848 1.346 3.195 2.953 3.195 1.586 0 2.832-1.347 2.832-3.195Z"/><path fill="#34A853" d="M53.804 1.21v15.544h-2.271V1.211h2.271Z"/><path fill="#EA4335" d="m62.657 13.52 1.808 1.206c-.584.863-1.99 2.35-4.42 2.35-3.013 0-5.263-2.329-5.263-5.303 0-3.154 2.27-5.304 5.003-5.304 2.752 0 4.099 2.19 4.538 3.374l.242.602-7.09 2.937c.543 1.064 1.387 1.607 2.57 1.607 1.187 0 2.01-.584 2.612-1.468Zm-5.565-1.908 4.74-1.968c-.26-.662-1.045-1.124-1.968-1.124-1.184 0-2.832 1.045-2.772 3.092Z"/><path fill="#4285F4" d="M8.439 10.396v-2.25h7.583c.074.391.112.855.112 1.358 0 1.688-.462 3.775-1.949 5.263-1.447 1.506-3.295 2.31-5.744 2.31-4.539 0-8.355-3.697-8.355-8.236C.086 4.302 3.902.605 8.44.605c2.511 0 4.3.986 5.644 2.27l-1.588 1.588c-.964-.904-2.27-1.607-4.058-1.607-3.315 0-5.907 2.67-5.907 5.985 0 3.315 2.592 5.986 5.907 5.986 2.15 0 3.374-.864 4.158-1.648.636-.636 1.055-1.545 1.22-2.786l-5.378.002Z"/></g><defs><clipPath id="a"><path fill="#fff" d="M0 .492h65.043v22H0z"/></clipPath></defs></svg>