<svg width="142" height="22" viewBox="0 0 142 22" fill="none" xmlns="http://www.w3.org/2000/svg">
<path d="M10.353 0C16.069 0 20.705 4.636 20.705 10.353C20.705 16.069 16.069 20.705 10.353 20.705C4.635 20.705 0 16.069 0 10.353C0 4.636 4.635 0 10.353 0ZM15.221 5.482C13.815 4.076 11.535 4.076 10.129 5.482L5.482 10.128C4.125 11.543 4.148 13.782 5.534 15.168C6.919 16.554 9.159 16.578 10.574 15.222L15.221 10.575C16.627 9.168 16.627 6.889 15.221 5.482Z" fill="black"/>
<path d="M132.618 18V7.09088H135.551V8.99429H135.664C135.863 8.31721 136.197 7.80584 136.666 7.4602C137.135 7.10982 137.674 6.93463 138.285 6.93463C138.437 6.93463 138.6 6.9441 138.775 6.96304C138.95 6.98198 139.104 7.00802 139.237 7.04117V9.72582C139.095 9.68321 138.898 9.64533 138.647 9.61219C138.396 9.57904 138.167 9.56247 137.958 9.56247C137.513 9.56247 137.116 9.65954 136.765 9.85367C136.42 10.0431 136.145 10.3082 135.941 10.6491C135.743 10.99 135.643 11.383 135.643 11.8281V18H132.618Z" fill="black"/>
<path d="M125.636 18.2131C124.514 18.2131 123.548 17.9858 122.738 17.5312C121.933 17.072 121.313 16.4233 120.877 15.5852C120.442 14.7424 120.224 13.7457 120.224 12.5952C120.224 11.473 120.442 10.4882 120.877 9.64061C121.313 8.79308 121.926 8.13256 122.717 7.65908C123.512 7.18559 124.445 6.94885 125.515 6.94885C126.235 6.94885 126.905 7.06486 127.525 7.29686C128.15 7.52414 128.695 7.86741 129.159 8.32669C129.627 8.78597 129.992 9.36363 130.252 10.0596C130.513 10.7509 130.643 11.5606 130.643 12.4886V13.3196H121.431V11.4446H127.795C127.795 11.009 127.7 10.6231 127.511 10.2869C127.322 9.95075 127.059 9.68796 126.723 9.49857C126.391 9.30444 126.005 9.20737 125.565 9.20737C125.106 9.20737 124.698 9.31391 124.343 9.52698C123.993 9.73531 123.718 10.017 123.52 10.3721C123.321 10.7225 123.219 11.1132 123.214 11.544V13.3267C123.214 13.8665 123.314 14.3328 123.512 14.7258C123.716 15.1188 124.002 15.4219 124.372 15.6349C124.741 15.848 125.179 15.9545 125.686 15.9545C126.022 15.9545 126.33 15.9072 126.609 15.8125C126.888 15.7178 127.127 15.5757 127.326 15.3864C127.525 15.197 127.677 14.965 127.781 14.6903L130.579 14.875C130.437 15.5473 130.146 16.1345 129.706 16.6364C129.27 17.1335 128.707 17.5218 128.015 17.8011C127.329 18.0757 126.536 18.2131 125.636 18.2131Z" fill="black"/>
<path d="M108.006 18V3.45453H111.032V8.92328H111.124C111.257 8.62972 111.449 8.33142 111.7 8.02839C111.955 7.72063 112.287 7.46495 112.694 7.26135C113.106 7.05301 113.617 6.94885 114.228 6.94885C115.023 6.94885 115.757 7.15718 116.43 7.57385C117.102 7.98578 117.639 8.60841 118.042 9.44174C118.444 10.2703 118.646 11.3096 118.646 12.5596C118.646 13.7765 118.449 14.804 118.056 15.642C117.668 16.4754 117.138 17.1075 116.465 17.5383C115.798 17.9645 115.049 18.1775 114.221 18.1775C113.634 18.1775 113.134 18.0805 112.722 17.8863C112.315 17.6922 111.981 17.4484 111.721 17.1548C111.46 16.8565 111.262 16.5559 111.124 16.2528H110.989V18H108.006ZM110.968 12.5454C110.968 13.1941 111.058 13.7599 111.238 14.2429C111.418 14.7258 111.678 15.1023 112.019 15.3721C112.36 15.6373 112.774 15.7699 113.262 15.7699C113.755 15.7699 114.171 15.6349 114.512 15.365C114.853 15.0904 115.111 14.7116 115.286 14.2287C115.466 13.741 115.556 13.1799 115.556 12.5454C115.556 11.9157 115.469 11.3617 115.293 10.8835C115.118 10.4053 114.86 10.0312 114.519 9.76135C114.178 9.49146 113.759 9.35652 113.262 9.35652C112.77 9.35652 112.353 9.48673 112.012 9.74714C111.676 10.0076 111.418 10.3769 111.238 10.8551C111.058 11.3333 110.968 11.8968 110.968 12.5454Z" fill="black"/>
<path d="M102.5 18V7.09093H105.526V18H102.5ZM104.02 5.68468C103.57 5.68468 103.185 5.53553 102.863 5.23723C102.545 4.9342 102.387 4.57199 102.387 4.15058C102.387 3.73392 102.545 3.37644 102.863 3.07814C103.185 2.77511 103.57 2.6236 104.02 2.6236C104.47 2.6236 104.854 2.77511 105.171 3.07814C105.493 3.37644 105.654 3.73392 105.654 4.15058C105.654 4.57199 105.493 4.9342 105.171 5.23723C104.854 5.53553 104.47 5.68468 104.02 5.68468Z" fill="black"/>
<path d="M94.3168 18V7.09088H97.25V8.99429H97.3636C97.5625 8.31721 97.8963 7.80584 98.3651 7.4602C98.8338 7.10982 99.3736 6.93463 99.9844 6.93463C100.136 6.93463 100.299 6.9441 100.474 6.96304C100.65 6.98198 100.804 7.00802 100.936 7.04117V9.72582C100.794 9.68321 100.598 9.64533 100.347 9.61219C100.096 9.57904 99.866 9.56247 99.6577 9.56247C99.2126 9.56247 98.8149 9.65954 98.4645 9.85367C98.1188 10.0431 97.8442 10.3082 97.6406 10.6491C97.4418 10.99 97.3423 11.383 97.3423 11.8281V18H94.3168Z" fill="black"/>
<path d="M87.5074 18.2131C86.39 18.2131 85.4288 17.9763 84.6239 17.5028C83.8237 17.0246 83.2082 16.3617 82.7773 15.5142C82.3512 14.6667 82.1381 13.6913 82.1381 12.5881C82.1381 11.4706 82.3536 10.4905 82.7844 9.64772C83.22 8.80018 83.8379 8.13967 84.6381 7.66618C85.4383 7.18796 86.39 6.94885 87.4932 6.94885C88.4449 6.94885 89.2783 7.12167 89.9932 7.46732C90.7082 7.81296 91.274 8.29828 91.6907 8.92328C92.1073 9.54828 92.337 10.2822 92.3796 11.125H89.5245C89.444 10.5805 89.2309 10.1425 88.8853 9.81107C88.5444 9.47489 88.0969 9.30681 87.543 9.30681C87.0742 9.30681 86.6646 9.43465 86.3143 9.69033C85.9686 9.94128 85.6987 10.3082 85.5046 10.7912C85.3105 11.2741 85.2134 11.8589 85.2134 12.5454C85.2134 13.2415 85.3081 13.8333 85.4975 14.321C85.6916 14.8087 85.9639 15.1804 86.3143 15.4361C86.6646 15.6917 87.0742 15.8196 87.543 15.8196C87.8886 15.8196 88.1987 15.7486 88.4734 15.6065C88.7527 15.4645 88.9823 15.2585 89.1623 14.9886C89.3469 14.714 89.4677 14.3849 89.5245 14.0014H92.3796C92.3323 14.8347 92.105 15.5686 91.6978 16.2031C91.2953 16.8328 90.739 17.3253 90.0287 17.6804C89.3185 18.0355 88.4781 18.2131 87.5074 18.2131Z" fill="black"/>
<path d="M80.4247 10.2017L77.6548 10.3721C77.6075 10.1354 77.5057 9.92234 77.3494 9.73294C77.1932 9.53881 76.9872 9.38493 76.7315 9.27129C76.4806 9.15292 76.1799 9.09374 75.8295 9.09374C75.3608 9.09374 74.9654 9.19317 74.6435 9.39203C74.3215 9.58616 74.1605 9.84658 74.1605 10.1733C74.1605 10.4337 74.2647 10.6539 74.473 10.8338C74.6813 11.0137 75.0388 11.1581 75.5455 11.267L77.5199 11.6648C78.5805 11.8826 79.3712 12.2329 79.892 12.7159C80.4129 13.1989 80.6733 13.8333 80.6733 14.6193C80.6733 15.3343 80.4626 15.9616 80.0412 16.5014C79.6245 17.0412 79.0516 17.4626 78.3224 17.7656C77.598 18.0639 76.7623 18.2131 75.8153 18.2131C74.3712 18.2131 73.2206 17.9124 72.3636 17.3111C71.5114 16.705 71.0118 15.8811 70.8651 14.8395L73.8409 14.6832C73.9309 15.1236 74.1487 15.4597 74.4943 15.6917C74.84 15.919 75.2827 16.0327 75.8224 16.0327C76.3527 16.0327 76.7789 15.9309 77.1008 15.7273C77.4276 15.5189 77.5933 15.2514 77.598 14.9247C77.5933 14.6501 77.4773 14.4252 77.25 14.25C77.0227 14.0701 76.6723 13.9328 76.1989 13.8381L74.3097 13.4616C73.2443 13.2486 72.4512 12.8792 71.9304 12.3537C71.4143 11.8281 71.1562 11.1581 71.1562 10.3437C71.1562 9.64298 71.3456 9.03929 71.7244 8.53266C72.1079 8.02603 72.6454 7.63541 73.3366 7.36078C74.0327 7.08616 74.8471 6.94885 75.7798 6.94885C77.1577 6.94885 78.2419 7.24005 79.0327 7.82243C79.8281 8.40482 80.2921 9.1979 80.4247 10.2017Z" fill="black"/>
<path d="M61.9322 11.6932V18H58.9066V7.0909H61.7901V9.01561H61.918C62.1595 8.38114 62.5643 7.87925 63.1325 7.50993C63.7007 7.13588 64.3896 6.94885 65.1992 6.94885C65.9568 6.94885 66.6173 7.11457 67.1808 7.44601C67.7442 7.77745 68.1822 8.25094 68.4947 8.86647C68.8072 9.47726 68.9634 10.2064 68.9634 11.054V18H65.9379V11.5937C65.9426 10.9261 65.7721 10.4053 65.4265 10.0312C65.0809 9.65245 64.605 9.46306 63.9989 9.46306C63.5918 9.46306 63.2319 9.55065 62.9194 9.72584C62.6116 9.90103 62.3702 10.1567 62.195 10.4929C62.0245 10.8243 61.9369 11.2244 61.9322 11.6932Z" fill="black"/>
<path d="M50.4158 18.206C49.7198 18.206 49.0995 18.0852 48.555 17.8437C48.0105 17.5975 47.5797 17.2353 47.2624 16.7571C46.9499 16.2741 46.7937 15.6728 46.7937 14.9531C46.7937 14.3471 46.9049 13.8381 47.1275 13.4261C47.35 13.0142 47.653 12.6828 48.0366 12.4318C48.4201 12.1809 48.8557 11.9915 49.3434 11.8636C49.8358 11.7358 50.3519 11.6458 50.8917 11.5937C51.5262 11.5275 52.0375 11.4659 52.4258 11.4091C52.814 11.3475 53.0958 11.2576 53.2709 11.1392C53.4461 11.0208 53.5337 10.8456 53.5337 10.6136V10.571C53.5337 10.1212 53.3917 9.77319 53.1076 9.52698C52.8282 9.28076 52.4305 9.15766 51.9144 9.15766C51.3699 9.15766 50.9367 9.2784 50.6147 9.51987C50.2927 9.75662 50.0797 10.0549 49.9755 10.4148L47.1772 10.1875C47.3192 9.52461 47.5986 8.95169 48.0153 8.46874C48.4319 7.98105 48.9693 7.607 49.6275 7.34658C50.2904 7.08143 51.0574 6.94885 51.9286 6.94885C52.5347 6.94885 53.1147 7.01987 53.6687 7.16192C54.2274 7.30397 54.7222 7.52414 55.153 7.82243C55.5887 8.12073 55.9319 8.50425 56.1829 8.973C56.4338 9.43701 56.5593 9.99336 56.5593 10.642V18H53.69V16.4872H53.6048C53.4296 16.8281 53.1952 17.1288 52.9016 17.3892C52.6081 17.6449 52.2553 17.8461 51.8434 17.9929C51.4315 18.1349 50.9556 18.206 50.4158 18.206ZM51.2823 16.1179C51.7274 16.1179 52.1204 16.0303 52.4613 15.8551C52.8022 15.6752 53.0697 15.4337 53.2638 15.1307C53.458 14.8276 53.555 14.4844 53.555 14.1008V12.9432C53.4603 13.0047 53.3301 13.0615 53.1644 13.1136C53.0034 13.161 52.8211 13.206 52.6175 13.2486C52.4139 13.2864 52.2103 13.322 52.0067 13.3551C51.8031 13.3835 51.6185 13.4096 51.4528 13.4332C51.0976 13.4853 50.7875 13.5682 50.5224 13.6818C50.2572 13.7954 50.0512 13.9493 49.9045 14.1435C49.7577 14.3328 49.6843 14.5696 49.6843 14.8537C49.6843 15.2656 49.8334 15.5805 50.1317 15.7983C50.4348 16.0114 50.8183 16.1179 51.2823 16.1179Z" fill="black"/>
<path d="M39.434 18V7.09088H42.3672V8.99429H42.4808C42.6797 8.31721 43.0135 7.80584 43.4823 7.4602C43.951 7.10982 44.4908 6.93463 45.1016 6.93463C45.2531 6.93463 45.4164 6.9441 45.5916 6.96304C45.7668 6.98198 45.9207 7.00802 46.0533 7.04117V9.72582C45.9112 9.68321 45.7147 9.64533 45.4638 9.61219C45.2128 9.57904 44.9832 9.56247 44.7749 9.56247C44.3298 9.56247 43.9321 9.65954 43.5817 9.85367C43.236 10.0431 42.9614 10.3082 42.7578 10.6491C42.559 10.99 42.4595 11.383 42.4595 11.8281V18H39.434Z" fill="black"/>
<path d="M26.7102 5.99004V3.45453H38.6563V5.99004H34.2031V18H31.1634V5.99004H26.7102Z" fill="black"/>
</svg>
